<svg width="32" height="32" viewBox="0 0 32 32" fill="none" xmlns="http://www.w3.org/2000/svg">
<path d="M4.77612 0.500001L27.2239 0.500005C29.5855 0.500005 31.5 2.41449 31.5 4.77612L31.5 27.2239C31.5 29.5855 29.5855 31.5 27.2239 31.5L4.77611 31.5C2.41448 31.5 0.499995 29.5855 0.499995 27.2239L0.499999 4.77612C0.5 2.41448 2.41448 0.5 4.77612 0.500001Z" fill="url(#paint0_radial_1779_3739)"/>
<path d="M4.77612 0.500001L27.2239 0.500005C29.5855 0.500005 31.5 2.41449 31.5 4.77612L31.5 27.2239C31.5 29.5855 29.5855 31.5 27.2239 31.5L4.77611 31.5C2.41448 31.5 0.499995 29.5855 0.499995 27.2239L0.499999 4.77612C0.5 2.41448 2.41448 0.5 4.77612 0.500001Z" stroke="black"/>
<path d="M4.77612 0.500001L27.2239 0.500005C29.5855 0.500005 31.5 2.41449 31.5 4.77612L31.5 27.2239C31.5 29.5855 29.5855 31.5 27.2239 31.5L4.77611 31.5C2.41448 31.5 0.499995 29.5855 0.499995 27.2239L0.499999 4.77612C0.5 2.41448 2.41448 0.5 4.77612 0.500001Z" stroke="url(#paint1_linear_1779_3739)"/>
<path fill-rule="evenodd" clip-rule="evenodd" d="M18.7206 17.2449L18.7206 19.2537L20.6798 19.2537L20.6798 17.2449L18.7206 17.2449ZM18.1401 15.3105L21.2603 15.3105C21.9816 15.3105 22.5664 15.9101 22.5664 16.6497L22.5664 19.8489C22.5664 20.5885 21.9816 21.1881 21.2603 21.1881L18.1401 21.1881C17.4188 21.1881 16.834 20.5885 16.834 19.8489L16.834 16.6497C16.834 15.9101 17.4188 15.3105 18.1401 15.3105Z" fill="#8A72D4"/>
<path fill-rule="evenodd" clip-rule="evenodd" d="M13.2071 11.0791C13.2071 10.5581 13.6294 10.1357 14.1504 10.1357L25.0347 10.1357C25.5557 10.1357 25.978 10.5581 25.978 11.0791C25.978 11.6 25.5557 12.0224 25.0347 12.0224L14.1504 12.0224C13.6294 12.0224 13.2071 11.6 13.2071 11.0791ZM13.207 23.5818C13.207 23.0608 13.6294 22.6385 14.1503 22.6385L25.0347 22.6385C25.5557 22.6385 25.978 23.0608 25.978 23.5818C25.978 24.1028 25.5557 24.5251 25.0347 24.5251L14.1503 24.5251C13.6294 24.5251 13.207 24.1028 13.207 23.5818Z" fill="#8A72D4"/>
<path fill-rule="evenodd" clip-rule="evenodd" d="M14.1484 13.6406C14.6694 13.6406 15.0917 13.9478 15.0917 14.3267L15.0917 23.6212C15.0917 24.0001 14.6694 24.3073 14.1484 24.3073C13.6274 24.3073 13.2051 24.0001 13.2051 23.6212L13.2051 14.3267C13.2051 13.9478 13.6274 13.6406 14.1484 13.6406ZM25.0327 13.6406C25.5537 13.6406 25.9761 13.9478 25.9761 14.3267L25.9761 23.6212C25.9761 24.0001 25.5537 24.3073 25.0327 24.3073C24.5118 24.3073 24.0894 24.0001 24.0894 23.6212L24.0894 14.3267C24.0894 13.9478 24.5118 13.6406 25.0327 13.6406Z" fill="#8A72D4"/>
<path fill-rule="evenodd" clip-rule="evenodd" d="M11.1203 7.55545C11.2659 7.701 11.3477 7.89841 11.3477 8.10425L11.3476 23.8654C11.3476 24.2941 11.0002 24.6416 10.5715 24.6416L6.87004 24.6416C6.44141 24.6416 6.09393 24.2941 6.09393 23.8654C6.09393 23.4368 6.44141 23.0893 6.87004 23.0893L9.79541 23.0893L9.79542 8.88036L6.87005 8.88036C6.44141 8.88036 6.09393 8.53288 6.09393 8.10424C6.09393 7.6756 6.44141 7.32812 6.87005 7.32812L10.5715 7.32813C10.7774 7.32813 10.9748 7.4099 11.1203 7.55545Z" fill="#8A72D4"/>
<path fill-rule="evenodd" clip-rule="evenodd" d="M6.33474 24.4143C6.18919 24.2687 6.10742 24.0713 6.10742 23.8655L6.10743 8.10429C6.10743 7.67565 6.45491 7.32817 6.88355 7.32817L10.585 7.32817C11.0137 7.32817 11.3612 7.67565 11.3612 8.10429C11.3612 8.53293 11.0137 8.88041 10.585 8.88041L7.65967 8.88041L7.65966 23.0894L10.585 23.0894C11.0137 23.0894 11.3611 23.4368 11.3611 23.8655C11.3611 24.2941 11.0137 24.6416 10.585 24.6416L6.88354 24.6416C6.6777 24.6416 6.48029 24.5598 6.33474 24.4143Z" fill="#8A72D4"/>
<defs>
<radialGradient id="paint0_radial_1779_3739" cx="0" cy="0" r="1" gradientUnits="userSpaceOnUse" gradientTransform="translate(16 16) rotate(90) scale(16)">
<stop stop-color="#494949"/>
<stop offset="1" stop-color="#17191B"/>
</radialGradient>
<linearGradient id="paint1_linear_1779_3739" x1="-1.04185" y1="-0.594235" x2="30.5196" y2="45.4679" gradientUnits="userSpaceOnUse">
<stop stop-color="white"/>
<stop offset="0.921875" stop-color="#757575"/>
<stop offset="1" stop-color="#B9B9B9"/>
</linearGradient>
</defs>
</svg>
