<svg width="32" height="32" viewBox="0 0 32 32" fill="none" xmlns="http://www.w3.org/2000/svg">
<path d="M4.77612 0.500001L27.2239 0.500005C29.5855 0.500005 31.5 2.41449 31.5 4.77612L31.5 27.2239C31.5 29.5855 29.5855 31.5 27.2239 31.5L4.77611 31.5C2.41448 31.5 0.499995 29.5855 0.499995 27.2239L0.499999 4.77612C0.5 2.41448 2.41448 0.5 4.77612 0.500001Z" fill="url(#paint0_radial_1779_3701)"/>
<path d="M4.77612 0.500001L27.2239 0.500005C29.5855 0.500005 31.5 2.41449 31.5 4.77612L31.5 27.2239C31.5 29.5855 29.5855 31.5 27.2239 31.5L4.77611 31.5C2.41448 31.5 0.499995 29.5855 0.499995 27.2239L0.499999 4.77612C0.5 2.41448 2.41448 0.5 4.77612 0.500001Z" stroke="black"/>
<path d="M4.77612 0.500001L27.2239 0.500005C29.5855 0.500005 31.5 2.41449 31.5 4.77612L31.5 27.2239C31.5 29.5855 29.5855 31.5 27.2239 31.5L4.77611 31.5C2.41448 31.5 0.499995 29.5855 0.499995 27.2239L0.499999 4.77612C0.5 2.41448 2.41448 0.5 4.77612 0.500001Z" stroke="url(#paint1_linear_1779_3701)"/>
<g style="mix-blend-mode:plus-darker">
<path fill-rule="evenodd" clip-rule="evenodd" d="M18.2128 16.9071L18.2128 18.8663L20.172 18.8663L20.172 16.9071L18.2128 16.9071ZM17.6323 15.0205L20.7525 15.0205C21.4738 15.0205 22.0586 15.6053 22.0586 16.3266L22.0586 19.4468C22.0586 20.1682 21.4738 20.7529 20.7525 20.7529L17.6323 20.7529C16.9109 20.7529 16.3262 20.1682 16.3262 19.4468L16.3262 16.3266C16.3262 15.6053 16.9109 15.0205 17.6323 15.0205Z" fill="#64C367"/>
</g>
<g style="mix-blend-mode:plus-darker">
<path fill-rule="evenodd" clip-rule="evenodd" d="M12.6973 12.4804C12.6973 11.9594 13.1196 11.5371 13.6406 11.5371L24.5249 11.5371C25.0459 11.5371 25.4682 11.9594 25.4682 12.4804C25.4682 13.0014 25.0459 13.4237 24.5249 13.4237L13.6406 13.4237C13.1196 13.4237 12.6973 13.0014 12.6973 12.4804ZM12.6973 23.3648C12.6973 22.8438 13.1196 22.4215 13.6406 22.4215L24.5249 22.4215C25.0459 22.4215 25.4682 22.8438 25.4682 23.3648C25.4682 23.8857 25.0459 24.3081 24.5249 24.3081L13.6406 24.3081C13.1196 24.3081 12.6973 23.8857 12.6973 23.3648Z" fill="#64C367"/>
</g>
<path fill-rule="evenodd" clip-rule="evenodd" d="M13.6406 11.5371C14.1616 11.5371 14.5839 11.9594 14.5839 12.4804L14.5839 23.3648C14.5839 23.8857 14.1615 24.3081 13.6406 24.3081C13.1196 24.3081 12.6973 23.8857 12.6973 23.3648L12.6973 12.4804C12.6973 11.9594 13.1196 11.5371 13.6406 11.5371ZM24.5249 11.5371C25.0459 11.5371 25.4682 11.9594 25.4682 12.4804L25.4682 23.3648C25.4682 23.8857 25.0459 24.3081 24.5249 24.3081C24.004 24.3081 23.5816 23.8857 23.5816 23.3648L23.5816 12.4804C23.5816 11.9594 24.004 11.5371 24.5249 11.5371Z" fill="#64C367"/>
<path fill-rule="evenodd" clip-rule="evenodd" d="M10.6125 7.62869C10.7581 7.77424 10.8398 7.97165 10.8398 8.17749L10.8398 23.9387C10.8398 24.3673 10.4924 24.7148 10.0637 24.7148L6.36223 24.7148C5.93359 24.7148 5.58611 24.3673 5.58611 23.9387C5.58611 23.51 5.93359 23.1626 6.36223 23.1626L9.2876 23.1626L9.28761 8.95361L6.36224 8.95361C5.9336 8.95361 5.58612 8.60612 5.58612 8.17749C5.58612 7.74885 5.9336 7.40137 6.36224 7.40137L10.0637 7.40137C10.2696 7.40137 10.467 7.48314 10.6125 7.62869Z" fill="#64C367"/>
<path fill-rule="evenodd" clip-rule="evenodd" d="M12.6992 8.34468C12.6992 7.8237 13.1216 7.40137 13.6425 7.40137L24.5269 7.40137C25.0479 7.40137 25.4702 7.8237 25.4702 8.34468C25.4702 8.86565 25.0479 9.28799 24.5269 9.28799L13.6425 9.28799C13.1216 9.28799 12.6992 8.86565 12.6992 8.34468Z" fill="#64C367"/>
<defs>
<radialGradient id="paint0_radial_1779_3701" cx="0" cy="0" r="1" gradientUnits="userSpaceOnUse" gradientTransform="translate(16 16) rotate(90) scale(16)">
<stop stop-color="#494949"/>
<stop offset="1" stop-color="#17191B"/>
</radialGradient>
<linearGradient id="paint1_linear_1779_3701" x1="-1.04185" y1="-0.594235" x2="30.5196" y2="45.4679" gradientUnits="userSpaceOnUse">
<stop stop-color="white"/>
<stop offset="0.921875" stop-color="#757575"/>
<stop offset="1" stop-color="#B9B9B9"/>
</linearGradient>
</defs>
</svg>
