<svg width="32" height="32" viewBox="0 0 32 32" fill="none" xmlns="http://www.w3.org/2000/svg">
<path d="M4.77612 0.5L27.2239 0.5C29.5855 0.5 31.5 2.41448 31.5 4.77612L31.5 27.2239C31.5 29.5855 29.5855 31.5 27.2239 31.5L4.77612 31.5C2.41448 31.5 0.5 29.5855 0.5 27.2239L0.5 4.77612C0.5 2.41448 2.41448 0.5 4.77612 0.5Z" fill="url(#paint0_radial_1779_3691)"/>
<path d="M4.77612 0.5L27.2239 0.5C29.5855 0.5 31.5 2.41448 31.5 4.77612L31.5 27.2239C31.5 29.5855 29.5855 31.5 27.2239 31.5L4.77612 31.5C2.41448 31.5 0.5 29.5855 0.5 27.2239L0.5 4.77612C0.5 2.41448 2.41448 0.5 4.77612 0.5Z" stroke="black"/>
<path d="M4.77612 0.5L27.2239 0.5C29.5855 0.5 31.5 2.41448 31.5 4.77612L31.5 27.2239C31.5 29.5855 29.5855 31.5 27.2239 31.5L4.77612 31.5C2.41448 31.5 0.5 29.5855 0.5 27.2239L0.5 4.77612C0.5 2.41448 2.41448 0.5 4.77612 0.5Z" stroke="url(#paint1_linear_1779_3691)"/>
<g style="mix-blend-mode:plus-darker">
<path fill-rule="evenodd" clip-rule="evenodd" d="M16.6353 15.1548L16.6353 13.5429L15.0233 13.5429L15.0233 15.1548L16.6353 15.1548ZM17.1129 16.707L14.5457 16.707C13.9522 16.707 13.4711 16.2259 13.4711 15.6324L13.4711 13.0652C13.4711 12.4717 13.9522 11.9906 14.5457 11.9906L17.1129 11.9906C17.7064 11.9906 18.1875 12.4717 18.1875 13.0652L18.1875 15.6324C18.1875 16.2259 17.7064 16.707 17.1129 16.707Z" fill="#FFA0A0"/>
</g>
<path fill-rule="evenodd" clip-rule="evenodd" d="M21.1719 18.7971C21.1719 19.2258 20.8244 19.5732 20.3958 19.5732L11.4405 19.5732C11.0119 19.5732 10.6644 19.2258 10.6644 18.7971C10.6644 18.3685 11.0119 18.021 11.4405 18.021L20.3958 18.021C20.8244 18.021 21.1719 18.3685 21.1719 18.7971ZM21.1719 9.84187C21.1719 10.2705 20.8244 10.618 20.3958 10.618L11.4405 10.618C11.0119 10.618 10.6644 10.2705 10.6644 9.84187C10.6644 9.41323 11.0119 9.06575 11.4405 9.06575L20.3958 9.06575C20.8244 9.06575 21.1719 9.41323 21.1719 9.84187Z" fill="#FFA0A0"/>
<path fill-rule="evenodd" clip-rule="evenodd" d="M20.3958 19.5732C19.9671 19.5732 19.6196 19.2258 19.6196 18.7971L19.6196 9.8419C19.6196 9.41326 19.9671 9.06578 20.3958 9.06578C20.8244 9.06578 21.1719 9.41326 21.1719 9.8419L21.1719 18.7971C21.1719 19.2258 20.8244 19.5732 20.3958 19.5732ZM11.4405 19.5732C11.0119 19.5732 10.6644 19.2258 10.6644 18.7971L10.6644 9.8419C10.6644 9.41326 11.0119 9.06578 11.4405 9.06578C11.8692 9.06578 12.2166 9.41326 12.2166 9.8419L12.2166 18.7971C12.2166 19.2258 11.8692 19.5732 11.4405 19.5732Z" fill="#FFA0A0"/>
<path fill-rule="evenodd" clip-rule="evenodd" d="M24.4074 10.1701C24.2619 10.3157 24.0645 10.3975 23.8586 10.3975L8.09745 10.3975C7.66881 10.3975 7.32133 10.05 7.32133 9.62133L7.32133 5.91985C7.32133 5.49121 7.66881 5.14373 8.09745 5.14373C8.52609 5.14373 8.87357 5.49121 8.87357 5.91985L8.87357 8.84522L23.0825 8.84522L23.0825 5.91986C23.0825 5.49122 23.43 5.14374 23.8586 5.14374C24.2873 5.14374 24.6348 5.49122 24.6348 5.91986L24.6348 9.62134C24.6348 9.82718 24.553 10.0246 24.4074 10.1701Z" fill="#FFA0A0"/>
<path fill-rule="evenodd" clip-rule="evenodd" d="M21.1699 24.1135C21.1699 24.5422 20.8224 24.8896 20.3938 24.8896L11.4386 24.8896C11.0099 24.8896 10.6625 24.5422 10.6625 24.1135C10.6625 23.6849 11.0099 23.3374 11.4386 23.3374L20.3938 23.3374C20.8224 23.3374 21.1699 23.6849 21.1699 24.1135Z" fill="#FFA0A0"/>
<defs>
<radialGradient id="paint0_radial_1779_3691" cx="0" cy="0" r="1" gradientUnits="userSpaceOnUse" gradientTransform="translate(16 16) rotate(90) scale(16)">
<stop stop-color="#494949"/>
<stop offset="1" stop-color="#17191B"/>
</radialGradient>
<linearGradient id="paint1_linear_1779_3691" x1="-1.04185" y1="-0.594235" x2="30.5196" y2="45.4679" gradientUnits="userSpaceOnUse">
<stop stop-color="white"/>
<stop offset="0.921875" stop-color="#757575"/>
<stop offset="1" stop-color="#B9B9B9"/>
</linearGradient>
</defs>
</svg>
