<svg width="32" height="32" viewBox="0 0 32 32" fill="none" xmlns="http://www.w3.org/2000/svg">
<path d="M4.77612 0.5H27.2239C29.5855 0.5 31.5 2.41448 31.5 4.77612V27.2239C31.5 29.5855 29.5855 31.5 27.2239 31.5H4.77612C2.41448 31.5 0.5 29.5855 0.5 27.2239V4.77612C0.5 2.41448 2.41448 0.5 4.77612 0.5Z" fill="url(#paint0_radial_1779_3721)"/>
<path d="M4.77612 0.5H27.2239C29.5855 0.5 31.5 2.41448 31.5 4.77612V27.2239C31.5 29.5855 29.5855 31.5 27.2239 31.5H4.77612C2.41448 31.5 0.5 29.5855 0.5 27.2239V4.77612C0.5 2.41448 2.41448 0.5 4.77612 0.5Z" stroke="black"/>
<path d="M4.77612 0.5H27.2239C29.5855 0.5 31.5 2.41448 31.5 4.77612V27.2239C31.5 29.5855 29.5855 31.5 27.2239 31.5H4.77612C2.41448 31.5 0.5 29.5855 0.5 27.2239V4.77612C0.5 2.41448 2.41448 0.5 4.77612 0.5Z" stroke="url(#paint1_linear_1779_3721)"/>
<g style="mix-blend-mode:plus-darker">
<path fill-rule="evenodd" clip-rule="evenodd" d="M14.9878 16.8452L14.9878 18.4571H16.5997V16.8452L14.9878 16.8452ZM14.5102 15.293L17.0773 15.293C17.6708 15.293 18.152 15.7741 18.152 16.3676V18.9348C18.152 19.5283 17.6708 20.0094 17.0773 20.0094L14.5102 20.0094C13.9167 20.0094 13.4355 19.5283 13.4355 18.9348L13.4355 16.3676C13.4355 15.7741 13.9167 15.293 14.5102 15.293Z" fill="#8A72D4"/>
</g>
<g style="mix-blend-mode:plus-darker">
<path fill-rule="evenodd" clip-rule="evenodd" d="M10.4512 13.2029C10.4512 12.7742 10.7987 12.4268 11.2273 12.4268H20.1825C20.6112 12.4268 20.9586 12.7742 20.9586 13.2029C20.9586 13.6315 20.6112 13.979 20.1825 13.979H11.2273C10.7987 13.979 10.4512 13.6315 10.4512 13.2029ZM10.4512 22.1581C10.4512 21.7295 10.7987 21.382 11.2273 21.382H20.1825C20.6112 21.382 20.9586 21.7295 20.9586 22.1581C20.9586 22.5868 20.6112 22.9342 20.1825 22.9342H11.2273C10.7987 22.9342 10.4512 22.5868 10.4512 22.1581Z" fill="#8A72D4"/>
</g>
<path fill-rule="evenodd" clip-rule="evenodd" d="M11.2273 12.4268C11.6559 12.4268 12.0034 12.7742 12.0034 13.2029L12.0034 22.1581C12.0034 22.5867 11.6559 22.9342 11.2273 22.9342C10.7987 22.9342 10.4512 22.5867 10.4512 22.1581L10.4512 13.2029C10.4512 12.7742 10.7987 12.4268 11.2273 12.4268ZM20.1825 12.4268C20.6112 12.4268 20.9586 12.7742 20.9586 13.2029V22.1581C20.9586 22.5867 20.6112 22.9342 20.1825 22.9342C19.7539 22.9342 19.4064 22.5867 19.4064 22.1581V13.2029C19.4064 12.7742 19.7539 12.4268 20.1825 12.4268Z" fill="#8A72D4"/>
<path fill-rule="evenodd" clip-rule="evenodd" d="M24.0735 26.6291C23.9279 26.7747 23.7305 26.8564 23.5247 26.8564L7.76347 26.8564C7.33483 26.8564 6.98735 26.509 6.98735 26.0803L6.98735 22.3788C6.98735 21.9502 7.33483 21.6027 7.76347 21.6027C8.19211 21.6027 8.53959 21.9502 8.53959 22.3788L8.53959 25.3042L22.7485 25.3042L22.7485 22.3788C22.7485 21.9502 23.096 21.6027 23.5247 21.6027C23.9533 21.6027 24.3008 21.9502 24.3008 22.3788L24.3008 26.0803C24.3008 26.2862 24.219 26.4836 24.0735 26.6291Z" fill="#8A72D4"/>
<path fill-rule="evenodd" clip-rule="evenodd" d="M7.16482 12.3972C7.31037 12.2517 7.50778 12.1699 7.71362 12.1699L23.4748 12.1699C23.9035 12.1699 24.2509 12.5174 24.2509 12.946V16.6475C24.2509 17.0762 23.9035 17.4237 23.4748 17.4237C23.0462 17.4237 22.6987 17.0762 22.6987 16.6475V13.7222L8.48974 13.7222L8.48974 16.6475C8.48974 17.0762 8.14226 17.4236 7.71362 17.4236C7.28498 17.4236 6.9375 17.0762 6.9375 16.6475L6.9375 12.946C6.9375 12.7402 7.01927 12.5428 7.16482 12.3972Z" fill="#8A72D4"/>
<path fill-rule="evenodd" clip-rule="evenodd" d="M10.8359 7.01635C10.8359 6.58771 11.1834 6.24023 11.6121 6.24023H20.5673C20.9959 6.24023 21.3434 6.58771 21.3434 7.01635C21.3434 7.44499 20.9959 7.79247 20.5673 7.79247H11.6121C11.1834 7.79247 10.8359 7.44499 10.8359 7.01635Z" fill="#8A72D4"/>
<path fill-rule="evenodd" clip-rule="evenodd" d="M10.8125 10.1365C10.8125 9.70783 11.16 9.36035 11.5886 9.36035H20.5438C20.9725 9.36035 21.32 9.70783 21.32 10.1365C21.32 10.5651 20.9725 10.9126 20.5438 10.9126H11.5886C11.16 10.9126 10.8125 10.5651 10.8125 10.1365Z" fill="#8A72D4"/>
<defs>
<radialGradient id="paint0_radial_1779_3721" cx="0" cy="0" r="1" gradientUnits="userSpaceOnUse" gradientTransform="translate(16 16) rotate(90) scale(16)">
<stop stop-color="#494949"/>
<stop offset="1" stop-color="#17191B"/>
</radialGradient>
<linearGradient id="paint1_linear_1779_3721" x1="-1.04185" y1="-0.594235" x2="30.5196" y2="45.4679" gradientUnits="userSpaceOnUse">
<stop stop-color="white"/>
<stop offset="0.921875" stop-color="#757575"/>
<stop offset="1" stop-color="#B9B9B9"/>
</linearGradient>
</defs>
</svg>
