<svg width="32" height="32" viewBox="0 0 32 32" fill="none" xmlns="http://www.w3.org/2000/svg">
<path d="M4.77612 0.5L27.2239 0.5C29.5855 0.5 31.5 2.41448 31.5 4.77612L31.5 27.2239C31.5 29.5855 29.5855 31.5 27.2239 31.5L4.77612 31.5C2.41448 31.5 0.5 29.5855 0.5 27.2239L0.5 4.77612C0.5 2.41448 2.41448 0.5 4.77612 0.5Z" fill="url(#paint0_radial_1779_3711)"/>
<path d="M4.77612 0.5L27.2239 0.5C29.5855 0.5 31.5 2.41448 31.5 4.77612L31.5 27.2239C31.5 29.5855 29.5855 31.5 27.2239 31.5L4.77612 31.5C2.41448 31.5 0.5 29.5855 0.5 27.2239L0.5 4.77612C0.5 2.41448 2.41448 0.5 4.77612 0.5Z" stroke="black"/>
<path d="M4.77612 0.5L27.2239 0.5C29.5855 0.5 31.5 2.41448 31.5 4.77612L31.5 27.2239C31.5 29.5855 29.5855 31.5 27.2239 31.5L4.77612 31.5C2.41448 31.5 0.5 29.5855 0.5 27.2239L0.5 4.77612C0.5 2.41448 2.41448 0.5 4.77612 0.5Z" stroke="url(#paint1_linear_1779_3711)"/>
<g style="mix-blend-mode:plus-darker">
<path fill-rule="evenodd" clip-rule="evenodd" d="M16.6314 15.1548L16.6314 13.5429L15.0194 13.5429L15.0194 15.1548L16.6314 15.1548ZM17.109 16.707L14.5418 16.707C13.9483 16.707 13.4672 16.2259 13.4672 15.6324L13.4672 13.0652C13.4672 12.4717 13.9483 11.9906 14.5418 11.9906L17.109 11.9906C17.7025 11.9906 18.1836 12.4717 18.1836 13.0652L18.1836 15.6324C18.1836 16.2259 17.7025 16.707 17.109 16.707Z" fill="#64C367"/>
</g>
<g style="mix-blend-mode:plus-darker">
<path fill-rule="evenodd" clip-rule="evenodd" d="M21.168 18.7971C21.168 19.2258 20.8205 19.5732 20.3918 19.5732L11.4366 19.5732C11.008 19.5732 10.6605 19.2258 10.6605 18.7971C10.6605 18.3685 11.008 18.021 11.4366 18.021L20.3918 18.021C20.8205 18.021 21.168 18.3685 21.168 18.7971ZM21.168 9.84187C21.168 10.2705 20.8205 10.618 20.3919 10.618L11.4366 10.618C11.008 10.618 10.6605 10.2705 10.6605 9.84187C10.6605 9.41323 11.008 9.06575 11.4366 9.06575L20.3919 9.06575C20.8205 9.06575 21.168 9.41323 21.168 9.84187Z" fill="#64C367"/>
</g>
<g style="mix-blend-mode:plus-lighter">
<path fill-rule="evenodd" clip-rule="evenodd" d="M20.3918 19.5732C19.9632 19.5732 19.6157 19.2258 19.6157 18.7971L19.6157 9.8419C19.6157 9.41326 19.9632 9.06578 20.3919 9.06578C20.8205 9.06578 21.168 9.41326 21.168 9.8419L21.168 18.7971C21.168 19.2258 20.8205 19.5732 20.3918 19.5732ZM11.4366 19.5732C11.008 19.5732 10.6605 19.2258 10.6605 18.7971L10.6605 9.8419C10.6605 9.41326 11.008 9.06578 11.4366 9.06578C11.8653 9.06578 12.2127 9.41326 12.2127 9.8419L12.2127 18.7971C12.2127 19.2258 11.8653 19.5732 11.4366 19.5732Z" fill="#64C367"/>
</g>
<path fill-rule="evenodd" clip-rule="evenodd" d="M24.4035 10.1701C24.258 10.3157 24.0606 10.3975 23.8547 10.3975L8.09355 10.3975C7.66491 10.3975 7.31743 10.05 7.31743 9.62133L7.31743 5.91985C7.31743 5.49121 7.66491 5.14373 8.09355 5.14373C8.52218 5.14373 8.86967 5.49121 8.86967 5.91985L8.86967 8.84522L23.0786 8.84522L23.0786 5.91986C23.0786 5.49122 23.4261 5.14374 23.8547 5.14374C24.2834 5.14374 24.6309 5.49122 24.6309 5.91986L24.6309 9.62134C24.6309 9.82718 24.5491 10.0246 24.4035 10.1701Z" fill="#64C367"/>
<path fill-rule="evenodd" clip-rule="evenodd" d="M21.168 24.1135C21.168 24.5422 20.8205 24.8896 20.3918 24.8896L11.4366 24.8896C11.008 24.8896 10.6605 24.5422 10.6605 24.1135C10.6605 23.6849 11.008 23.3374 11.4366 23.3374L20.3918 23.3374C20.8205 23.3374 21.168 23.6849 21.168 24.1135Z" fill="#64C367"/>
<defs>
<radialGradient id="paint0_radial_1779_3711" cx="0" cy="0" r="1" gradientUnits="userSpaceOnUse" gradientTransform="translate(16 16) rotate(90) scale(16)">
<stop stop-color="#494949"/>
<stop offset="1" stop-color="#17191B"/>
</radialGradient>
<linearGradient id="paint1_linear_1779_3711" x1="-1.04185" y1="-0.594235" x2="30.5196" y2="45.4679" gradientUnits="userSpaceOnUse">
<stop stop-color="white"/>
<stop offset="0.921875" stop-color="#757575"/>
<stop offset="1" stop-color="#B9B9B9"/>
</linearGradient>
</defs>
</svg>
