<svg width="40" height="40" viewBox="0 0 40 40" fill="none" xmlns="http://www.w3.org/2000/svg">
<g clip-path="url(#clip0_1612_437)">
<path d="M34.0299 0H5.97015C2.67293 0 0 2.67293 0 5.97015V34.0299C0 37.3271 2.67293 40 5.97015 40H34.0299C37.3271 40 40 37.3271 40 34.0299V5.97015C40 2.67293 37.3271 0 34.0299 0Z" fill="black"/>
<g clip-path="url(#clip1_1612_437)">
<mask id="mask0_1612_437" style="mask-type:luminance" maskUnits="userSpaceOnUse" x="4" y="8" width="32" height="24">
<path d="M35.413 8H4.43115V32H35.413V8Z" fill="white"/>
</mask>
<g mask="url(#mask0_1612_437)">
<path d="M30.6586 10.1372C28.6839 9.23117 26.5664 8.56362 24.3523 8.18129C24.312 8.17391 24.2717 8.19235 24.251 8.22923C23.9786 8.7136 23.677 9.3455 23.4657 9.84217C21.0844 9.48566 18.7153 9.48566 16.3828 9.84217C16.1715 9.33446 15.8589 8.7136 15.5853 8.22923C15.5646 8.19358 15.5243 8.17514 15.484 8.18129C13.2712 8.5624 11.1536 9.22995 9.17774 10.1372C9.16064 10.1446 9.14597 10.1569 9.13624 10.1729C5.11971 16.1735 4.01942 22.0266 4.55918 27.8072C4.56163 27.8354 4.5775 27.8625 4.59948 27.8797C7.24948 29.8258 9.81645 31.0072 12.3357 31.7903C12.3761 31.8026 12.4188 31.7879 12.4444 31.7547C13.0404 30.9409 13.5716 30.0828 14.0271 29.1804C14.054 29.1275 14.0283 29.0648 13.9734 29.0439C13.1308 28.7243 12.3284 28.3346 11.5566 27.892C11.4956 27.8564 11.4907 27.769 11.5468 27.7272C11.7093 27.6055 11.8717 27.4789 12.0268 27.351C12.0549 27.3277 12.094 27.3228 12.1269 27.3375C17.1973 29.6525 22.6866 29.6525 27.6971 27.3375C27.7301 27.3215 27.7692 27.3265 27.7985 27.3498C27.9536 27.4777 28.1161 27.6055 28.2797 27.7272C28.3359 27.769 28.3322 27.8564 28.2711 27.892C27.4993 28.3432 26.697 28.7243 25.8532 29.0427C25.7982 29.0636 25.7738 29.1275 25.8007 29.1804C26.2659 30.0815 26.7971 30.9396 27.3821 31.7535C27.4065 31.7879 27.4505 31.8026 27.4908 31.7903C30.0223 31.0072 32.5893 29.8258 35.2393 27.8797C35.2625 27.8625 35.2771 27.8367 35.2796 27.8084C35.9256 21.1254 34.1976 15.3203 30.6988 10.1741C30.6903 10.1569 30.6757 10.1446 30.6586 10.1372ZM14.7843 24.2874C13.2577 24.2874 11.9999 22.886 11.9999 21.1648C11.9999 19.4437 13.2333 18.0422 14.7843 18.0422C16.3474 18.0422 17.593 19.456 17.5686 21.1648C17.5686 22.886 16.3352 24.2874 14.7843 24.2874ZM25.0789 24.2874C23.5524 24.2874 22.2946 22.886 22.2946 21.1648C22.2946 19.4437 23.528 18.0422 25.0789 18.0422C26.6421 18.0422 27.8877 19.456 27.8633 21.1648C27.8633 22.886 26.6421 24.2874 25.0789 24.2874Z" fill="#5865F2"/>
</g>
</g>
</g>
<defs>
<clipPath id="clip0_1612_437">
<rect width="40" height="40" fill="white"/>
</clipPath>
<clipPath id="clip1_1612_437">
<rect width="30.9818" height="24" fill="white" transform="translate(4.43115 8)"/>
</clipPath>
</defs>
</svg>
