<svg width="40" height="40" viewBox="0 0 40 40" fill="none" xmlns="http://www.w3.org/2000/svg">
<g clip-path="url(#clip0_561_21303)">
<path d="M34.0299 0H5.97015C2.67293 0 0 2.67293 0 5.97015V34.0299C0 37.3271 2.67293 40 5.97015 40H34.0299C37.3271 40 40 37.3271 40 34.0299V5.97015C40 2.67293 37.3271 0 34.0299 0Z" fill="url(#paint0_radial_561_21303)"/>
<path d="M30.3766 12.2786C32.4168 12.2786 33.3938 14.7846 31.8919 16.1655L28.3639 19.4093C27.9507 19.7892 27.4099 20 26.8486 20H20.7463C20.3341 20 20 19.6659 20 19.2537V13.0249C20 12.6127 20.3341 12.2786 20.7463 12.2786H30.3766Z" fill="#589BFF" stroke="black"/>
<path d="M27.7214 30.3766C27.7214 32.4168 25.2154 33.3938 23.8346 31.8919L20.5907 28.3639C20.2108 27.9507 20 27.4099 20 26.8486V20.7463C20 20.3341 20.3341 20 20.7463 20H26.9751C27.3873 20 27.7214 20.3341 27.7214 20.7463V30.3766Z" fill="#FFF27C" stroke="black"/>
<path d="M9.62319 27.7214C7.58304 27.7214 6.60606 25.2154 8.10789 23.8346L11.6359 20.5907C12.0492 20.2108 12.5899 20 13.1512 20H19.2536C19.6657 20 19.9998 20.3341 19.9998 20.7463V26.9752C19.9998 27.3873 19.6657 27.7214 19.2536 27.7214H9.62319Z" fill="#9B65F0" stroke="black"/>
<path d="M12.2783 9.62337C12.2783 7.58322 14.7844 6.60624 16.1652 8.10807L19.409 11.6361C19.7889 12.0493 19.9997 12.5901 19.9997 13.1514V19.2537C19.9997 19.6659 19.6656 20 19.2535 20H13.0246C12.6124 20 12.2783 19.6659 12.2783 19.2537V9.62337Z" fill="#FF6948" stroke="black"/>
</g>
<defs>
<radialGradient id="paint0_radial_561_21303" cx="0" cy="0" r="1" gradientUnits="userSpaceOnUse" gradientTransform="translate(20 20) rotate(90) scale(20)">
<stop stop-color="#494949"/>
<stop offset="1" stop-color="#17191B"/>
</radialGradient>
<clipPath id="clip0_561_21303">
<rect width="40" height="40" fill="white"/>
</clipPath>
</defs>
</svg>