<svg width="114" height="114" viewBox="0 0 114 114" fill="none" xmlns="http://www.w3.org/2000/svg">
<path d="M0.208984 16.9527C0.208984 7.58997 7.79895 0 17.1617 0H96.8392C106.202 0 113.792 7.58997 113.792 16.9527V96.6302C113.792 105.993 106.202 113.583 96.8392 113.583H17.1617C7.79895 113.583 0.208984 105.993 0.208984 96.6302V16.9527Z" fill="url(#paint0_radial_1123_1030)"/>
<path fill-rule="evenodd" clip-rule="evenodd" d="M96.8392 2.33099H17.1617C9.08632 2.33099 2.53998 8.87734 2.53998 16.9527V96.6302C2.53998 104.706 9.08632 111.252 17.1617 111.252H96.8392C104.915 111.252 111.461 104.706 111.461 96.6302V16.9527C111.461 8.87734 104.915 2.33099 96.8392 2.33099ZM17.1617 0C7.79895 0 0.208984 7.58997 0.208984 16.9527V96.6302C0.208984 105.993 7.79895 113.583 17.1617 113.583H96.8392C106.202 113.583 113.792 105.993 113.792 96.6302V16.9527C113.792 7.58997 106.202 0 96.8392 0H17.1617Z" fill="url(#paint1_linear_1123_1030)"/>
<path d="M86.4678 34.8662C92.261 34.8662 95.0353 41.9824 90.7706 45.9034L80.7524 55.1145C79.5791 56.1932 78.0434 56.7919 76.4496 56.7919L59.1214 56.7919C57.951 56.7919 57.0022 55.8432 57.0022 54.6728L57.0022 36.9853C57.0022 35.815 57.951 34.8662 59.1213 34.8662L86.4678 34.8662Z" fill="#589BFF"/>
<path fill-rule="evenodd" clip-rule="evenodd" d="M86.4676 34.5479C92.5506 34.5479 95.4635 42.0198 90.9856 46.1369L80.9674 55.348C79.7354 56.4807 78.1229 57.1093 76.4494 57.1093L59.1212 57.1093C57.7753 57.1093 56.6842 56.0182 56.6842 54.6723L56.6842 36.9848C56.6842 35.6389 57.7753 34.5479 59.1212 34.5479L86.4676 34.5479ZM90.5553 45.6689C94.6067 41.9439 91.9712 35.1836 86.4676 35.1836L59.1212 35.1836C58.1264 35.1836 57.32 35.99 57.32 36.9848L57.32 54.6723C57.32 55.6671 58.1264 56.4736 59.1212 56.4736L76.4494 56.4736C77.9636 56.4736 79.4225 55.9048 80.5371 54.88L90.5553 45.6689Z" fill="black"/>
<path d="M78.9277 86.2568C78.9277 92.0501 71.8116 94.8243 67.8905 90.5597L58.6795 80.5414C57.6007 79.3682 57.002 77.8325 57.002 76.2386L57.002 58.9104C57.002 57.7401 57.9508 56.7913 59.1211 56.7913L76.8086 56.7913C77.979 56.7913 78.9277 57.7401 78.9277 58.9104L78.9277 86.2568Z" fill="#FFF27C"/>
<path fill-rule="evenodd" clip-rule="evenodd" d="M79.2461 86.2567C79.2461 92.3396 71.7741 95.2525 67.657 90.7747L58.446 80.7564C57.3133 79.5245 56.6847 77.912 56.6847 76.2385L56.6847 58.9103C56.6847 57.5644 57.7757 56.4733 59.1216 56.4733L76.8091 56.4733C78.155 56.4733 79.2461 57.5644 79.2461 58.9103L79.2461 86.2567ZM68.125 90.3444C71.85 94.3958 78.6104 91.7603 78.6104 86.2567L78.6104 58.9103C78.6104 57.9155 77.8039 57.109 76.8091 57.109L59.1216 57.109C58.1268 57.109 57.3204 57.9155 57.3204 58.9103L57.3204 76.2385C57.3204 77.7526 57.8891 79.2115 58.914 80.3262L68.125 90.3444Z" fill="black"/>
<path d="M27.5381 78.7168C21.7448 78.7168 18.9706 71.6007 23.2353 67.6796L33.2535 58.4685C34.4268 57.3898 35.9625 56.7911 37.5563 56.7911L54.8845 56.7911C56.0549 56.7911 57.0036 57.7399 57.0036 58.9102L57.0036 76.5977C57.0036 77.768 56.0549 78.7168 54.8845 78.7168L27.5381 78.7168Z" fill="#9B65F0"/>
<path fill-rule="evenodd" clip-rule="evenodd" d="M27.5382 79.0342C21.4553 79.0342 18.5424 71.5622 23.0203 67.4451L33.0385 58.2341C34.2704 57.1014 35.8829 56.4727 37.5565 56.4727L54.8847 56.4727C56.2306 56.4727 57.3216 57.5638 57.3216 58.9097L57.3216 76.5972C57.3216 77.9431 56.2306 79.0342 54.8847 79.0342L27.5382 79.0342ZM23.4506 67.9131C19.3991 71.6381 22.0346 78.3984 27.5382 78.3984L54.8847 78.3985C55.8795 78.3985 56.6859 77.592 56.6859 76.5972L56.6859 58.9097C56.6859 57.9149 55.8795 57.1085 54.8847 57.1085L37.5565 57.1085C36.0423 57.1085 34.5834 57.6772 33.4688 58.7021L23.4506 67.9131Z" fill="black"/>
<path d="M35.0742 27.3262C35.0742 21.5329 42.1904 18.7587 46.1114 23.0234L55.3225 33.0416C56.4012 34.2149 56.9999 35.7505 56.9999 37.3444L56.9999 54.6726C56.9999 55.8429 56.0512 56.7917 54.8808 56.7917L37.1933 56.7917C36.023 56.7917 35.0742 55.8429 35.0742 54.6726L35.0742 27.3262Z" fill="#FF6948"/>
<path fill-rule="evenodd" clip-rule="evenodd" d="M34.7598 27.3263C34.7598 21.2434 42.2317 18.3305 46.3488 22.8084L55.5599 32.8266C56.6926 34.0585 57.3212 35.671 57.3212 37.3445L57.3212 54.6727C57.3212 56.0186 56.2301 57.1097 54.8842 57.1097L37.1967 57.1097C35.8508 57.1097 34.7598 56.0186 34.7598 54.6727L34.7598 27.3263ZM45.8808 23.2386C42.1558 19.1872 35.3955 21.8227 35.3955 27.3263L35.3955 54.6727C35.3955 55.6675 36.2019 56.474 37.1967 56.474L54.8842 56.474C55.879 56.474 56.6855 55.6675 56.6855 54.6727L56.6855 37.3445C56.6855 35.8304 56.1167 34.3715 55.0919 33.2569L45.8808 23.2386Z" fill="black"/>
<defs>
<radialGradient id="paint0_radial_1123_1030" cx="0" cy="0" r="1" gradientUnits="userSpaceOnUse" gradientTransform="translate(57.0004 56.7914) rotate(90) scale(56.7914)">
<stop stop-color="#494949"/>
<stop offset="1" stop-color="#17191B"/>
</radialGradient>
<linearGradient id="paint1_linear_1123_1030" x1="11.758" y1="7.94657" x2="118.348" y2="98.8553" gradientUnits="userSpaceOnUse">
<stop stop-color="white"/>
<stop offset="1" stop-color="#939393" stop-opacity="0"/>
</linearGradient>
</defs>
</svg>
