<svg width="688" height="699" viewBox="0 0 688 699" fill="none" xmlns="http://www.w3.org/2000/svg">
<g clip-path="url(#clip0_1173_1232)">
<path d="M424.902 91.763L393.171 123.314H458.842L424.902 91.763Z" fill="black" stroke="black" stroke-width="10"/>
<path d="M271.166 113.933V81.0288L299.546 90.9143L271.166 113.933Z" fill="black" stroke="black" stroke-width="10"/>
<path d="M366.024 36.8122H364.674L363.633 37.6722L322.298 71.8118L339.931 35.7838L402.347 7.38248L390.097 36.8122H366.024Z" fill="black" stroke="black" stroke-width="10"/>
<path d="M363.44 123.268H281.487L363.44 56.7683V123.268Z" fill="black" stroke="black" stroke-width="10"/>
<path d="M367.198 127.03H270.884" stroke="black" stroke-width="10"/>
<path d="M334.577 156.43L333.927 155.506L332.877 155.094L290.759 138.56H362.401L351.928 181.083L334.577 156.43Z" fill="black" stroke="black" stroke-width="10"/>
<path d="M367.694 182.312L371.247 167.38V179.852L367.694 182.312Z" fill="black" stroke="black" stroke-width="10"/>
<path d="M384.363 181.527L385.944 157.528L392.798 183.135L384.363 181.527Z" fill="black" stroke="black" stroke-width="10"/>
<path d="M410.274 184.914L401.744 187.166L396.564 160.87L410.274 184.914Z" fill="black"/>
<mask id="mask0_1173_1232" style="mask-type:luminance" maskUnits="userSpaceOnUse" x="396" y="160" width="15" height="28">
<path d="M410.274 184.914L401.744 187.166L396.564 160.87L410.274 184.914Z" fill="white"/>
</mask>
<g mask="url(#mask0_1173_1232)">
<path d="M401.744 187.166L394.371 188.622L395.92 196.485L403.661 194.441L401.744 187.166ZM410.274 184.914L412.191 192.188L421.65 189.69L416.801 181.185L410.274 184.914ZM396.564 160.87L403.091 157.141L389.191 162.326L396.564 160.87ZM403.661 194.441L412.191 192.188L408.357 177.64L399.828 179.892L403.661 194.441ZM416.801 181.185L403.091 157.141L390.037 164.599L403.747 188.643L416.801 181.185ZM409.117 185.711L403.937 159.414L389.191 162.326L394.371 188.622L409.117 185.711Z" fill="black"/>
</g>
<path d="M377.983 118V52.6387H443.807L377.983 118Z" fill="black" stroke="black" stroke-width="10"/>
<path d="M243.51 91.7554L258.603 82.4658V95.2244L243.51 91.7554Z" fill="black" stroke="black" stroke-width="10"/>
<path d="M476.076 576.075L552.454 505.627V576.075H476.076Z" fill="black"/>
<path d="M466.837 579.686L466.736 579.575M476.076 576.075L552.454 505.627V576.075H476.076Z" stroke="black" stroke-width="10"/>
<path d="M542.185 587.316L539.021 602.577L532.364 587.316H542.185Z" fill="black" stroke="black" stroke-width="10"/>
<path d="M604.814 580.376L585.779 655.231L576.693 648.978L565.664 579.539V511.298L604.814 580.376ZM575.416 648.099C575.416 648.1 575.418 648.101 575.419 648.101L575.416 648.099Z" fill="black" stroke="black" stroke-width="10"/>
<path d="M577.845 505.53L726.8 576.075H617.826L577.845 505.53Z" fill="black" stroke="black" stroke-width="10"/>
<path d="M618.561 588.836H696.936L615.195 602.121L618.561 588.836Z" fill="black"/>
<path d="M741.664 585.225L741.688 585.373M618.561 588.836H696.936L615.195 602.121L618.561 588.836Z" stroke="black" stroke-width="10"/>
<path d="M465.258 529.585L534.58 503.597L465.258 567.537V529.585Z" fill="black" stroke="black" stroke-width="10"/>
<path d="M452.791 529.979V569.472L432.054 557.008L451.358 529.654L452.791 529.979Z" fill="black"/>
<path d="M449.836 525.454L449.837 525.45M452.791 529.979V569.472L432.054 557.008L451.358 529.654L452.791 529.979Z" stroke="black" stroke-width="10"/>
<path d="M439.647 523.156L419.781 551.308L403.553 542.833L391.409 525.891V504.371L425.603 496.411L439.647 523.156ZM417.961 553.887C417.962 553.886 417.963 553.884 417.963 553.884L417.961 553.887Z" fill="black" stroke="black" stroke-width="10"/>
<path d="M379.065 529.903C379.065 530.711 379.314 531.499 379.78 532.159L345.738 507.659L348.301 506.102L379.065 512.218V529.903Z" fill="black"/>
<path d="M347.549 502.158L347.553 502.163L347.558 502.171M379.065 529.903C379.065 530.711 379.314 531.499 379.78 532.159L345.738 507.659L348.301 506.102L379.065 512.218V529.903Z" stroke="black" stroke-width="10"/>
<path d="M408.335 488.311L389.341 492.733L376.118 469.526V463.13H382.116L408.335 488.311ZM375.644 468.694C375.645 468.694 375.645 468.694 375.645 468.695L375.644 468.694Z" fill="black"/>
<path d="M372.407 470.542L372.38 470.558M408.335 488.311L389.341 492.733L376.118 469.526V463.13H382.116L408.335 488.311ZM375.644 468.694C375.645 468.694 375.645 468.694 375.645 468.695L375.644 468.694Z" stroke="black" stroke-width="10"/>
<path d="M397.931 459.349L401.939 465.96L395.541 459.815L397.931 459.349Z" fill="black"/>
<path d="M399.837 455.245L399.838 455.244M397.931 459.349L401.939 465.96L395.541 459.815L397.931 459.349Z" stroke="black" stroke-width="10"/>
<path d="M525.302 611.406L515.489 583.755C515.454 583.657 515.527 583.554 515.63 583.554H522.81C522.869 583.554 522.923 583.59 522.947 583.645L529.724 599.179C529.74 599.214 529.741 599.252 529.729 599.288L525.586 611.405C525.539 611.539 525.349 611.54 525.302 611.406Z" fill="black"/>
<mask id="mask1_1173_1232" style="mask-type:luminance" maskUnits="userSpaceOnUse" x="515" y="583" width="15" height="29">
<path d="M525.302 611.406L515.489 583.755C515.454 583.657 515.527 583.554 515.63 583.554H522.81C522.869 583.554 522.923 583.59 522.947 583.645L529.724 599.179C529.74 599.214 529.741 599.252 529.729 599.288L525.586 611.405C525.539 611.539 525.349 611.54 525.302 611.406Z" fill="white"/>
</mask>
<g mask="url(#mask1_1173_1232)">
<path d="M508.408 586.274L518.22 613.925L532.383 608.887L522.571 581.237L508.408 586.274ZM516.06 586.656L522.838 602.19L536.612 596.168L529.834 580.634L516.06 586.656ZM532.695 613.841L536.839 601.725L522.62 596.852L518.476 608.968L532.695 613.841ZM515.631 591.078H522.81V576.031H515.631V591.078ZM522.838 602.19C522.1 600.5 522.023 598.596 522.62 596.852L536.839 601.725C537.461 599.909 537.379 597.927 536.612 596.168L522.838 602.19ZM518.22 613.925C520.651 620.772 530.343 620.717 532.695 613.841L518.476 608.968C520.735 602.361 530.048 602.308 532.383 608.887L518.22 613.925ZM522.571 581.237C524.274 586.036 520.718 591.078 515.631 591.078V576.031C510.335 576.031 506.635 581.279 508.408 586.274L522.571 581.237ZM529.834 580.634C528.614 577.838 525.857 576.031 522.81 576.031V591.078C519.882 591.078 517.232 589.342 516.06 586.656L529.834 580.634Z" fill="black"/>
</g>
<path d="M564.506 685.124L573.889 660.594L583.549 667.823L584.272 716.589L576.271 711.082L564.506 685.124ZM584.97 668.886C584.97 668.886 584.97 668.886 584.97 668.886L584.97 668.886Z" fill="black" stroke="black" stroke-width="10"/>
<path d="M195.077 599.487L204.808 613.027H200.493H176.426L195.077 599.487Z" fill="black" stroke="black" stroke-width="10"/>
<path d="M145.813 592.236L177.728 516.488C177.773 516.378 177.922 516.363 177.99 516.461L181.105 521.019L190.146 534.246C190.162 534.271 190.172 534.301 190.172 534.331V583.637C190.172 583.669 190.182 583.702 190.202 583.727L195.299 590.452C195.349 590.52 195.336 590.616 195.267 590.665L164.35 613.11C164.324 613.129 164.293 613.139 164.262 613.139H157.754C157.7 613.139 157.651 613.11 157.624 613.063L145.821 592.369C145.798 592.328 145.795 592.279 145.813 592.236Z" fill="black"/>
<mask id="mask2_1173_1232" style="mask-type:luminance" maskUnits="userSpaceOnUse" x="145" y="516" width="51" height="98">
<path d="M145.813 592.236L177.728 516.488C177.773 516.378 177.922 516.363 177.99 516.461L181.105 521.019L190.146 534.246C190.162 534.271 190.172 534.301 190.172 534.331V583.637C190.172 583.669 190.182 583.702 190.202 583.727L195.299 590.452C195.349 590.52 195.336 590.616 195.267 590.665L164.35 613.11C164.324 613.129 164.293 613.139 164.262 613.139H157.754C157.7 613.139 157.651 613.11 157.624 613.063L145.821 592.369C145.798 592.328 145.795 592.279 145.813 592.236Z" fill="white"/>
</mask>
<g mask="url(#mask2_1173_1232)">
<path d="M195.299 590.452L189.311 594.999V595L195.299 590.452ZM164.35 613.11L168.76 619.202L168.762 619.201L164.35 613.11ZM145.821 592.369L139.294 596.099L139.295 596.099L145.821 592.369ZM170.803 513.564L138.888 589.312L152.737 595.16L184.651 519.411L170.803 513.564ZM182.657 534.331V583.637H197.687V534.331H182.657ZM184.214 588.274L189.311 594.999L201.286 585.906L196.189 579.181L184.214 588.274ZM190.855 584.575L159.938 607.02L168.762 619.201L199.678 596.756L190.855 584.575ZM164.262 605.615H157.754V620.662H164.262V605.615ZM164.15 609.333L152.347 588.639L139.295 596.099L151.097 616.793L164.15 609.333ZM171.787 520.71L174.902 525.267L187.307 516.771L184.192 512.213L171.787 520.71ZM174.902 525.267L183.943 538.495L196.348 529.998L187.307 516.771L174.902 525.267ZM157.754 605.615C160.398 605.615 162.84 607.034 164.15 609.333L151.097 616.793C152.462 619.186 155.003 620.662 157.754 620.662V605.615ZM159.939 607.019C161.196 606.107 162.708 605.615 164.262 605.615V620.662C165.878 620.662 167.453 620.15 168.76 619.202L159.939 607.019ZM189.311 595C186.815 591.706 187.512 587.002 190.855 584.575L199.678 596.756C203.158 594.23 203.884 589.334 201.285 585.905L189.311 595ZM182.657 583.637C182.657 585.312 183.204 586.941 184.215 588.275L196.189 579.181C197.161 580.464 197.687 582.028 197.687 583.637H182.657ZM197.687 534.331C197.687 532.785 197.219 531.274 196.348 529.998L183.943 538.495C183.105 537.269 182.657 535.817 182.657 534.331H197.687ZM184.651 519.411C182.386 524.787 175.078 525.524 171.787 520.71L184.192 512.213C180.766 507.202 173.16 507.969 170.802 513.564L184.651 519.411ZM138.888 589.312C137.961 591.515 138.111 594.024 139.294 596.099L152.347 588.639C153.484 590.633 153.629 593.043 152.737 595.16L138.888 589.312Z" fill="black"/>
</g>
<path d="M36.2478 447.3L30.8301 443.458L36.3642 434.747L42.2672 433.964L88.9833 484.163L85.4655 492.109L57.5787 490.889L40.7524 490.153L37.8867 450.211C37.803 449.044 37.2016 447.976 36.2478 447.3Z" fill="black" stroke="black" stroke-width="10"/>
<path d="M13.8035 462.573L24.5977 461.308L26.7672 491.547L5.26514 472.514L13.8035 462.573Z" fill="black"/>
<path d="M30.9983 500.112L30.8987 500.225M13.8035 462.573L24.5977 461.308L26.7672 491.547L5.26514 472.514L13.8035 462.573Z" stroke="black" stroke-width="10"/>
<path d="M18.1107 449.986L16.2783 450.2L17.175 449.322L17.7088 449.7L18.1107 449.986Z" fill="black" stroke="black" stroke-width="10"/>
<path d="M58.4412 405.855L58.4427 405.857L58.4412 405.855ZM58.4412 405.855L58.4427 405.857L58.4412 405.855ZM65.4923 414.666L51.9902 416.456L58.8754 410.459L65.4923 414.666Z" fill="black"/>
<path d="M58.4391 405.853L58.4412 405.855L58.4427 405.857L58.4448 405.86M65.4923 414.666L51.9902 416.456L58.8754 410.459L65.4923 414.666Z" stroke="black" stroke-width="10"/>
<path d="M99.1361 470.102L99.1241 470.128L99.1128 470.155L98.2591 472.083L57.375 428.151L76.4764 425.618H119.646L99.1361 470.102Z" fill="black" stroke="black" stroke-width="10"/>
<path d="M72.1879 509.304L69.1777 506.711L83.2831 507.328L79.5872 515.676L72.1879 509.304Z" fill="black"/>
<path d="M72.1879 509.304L69.1777 506.711L83.2831 507.328L79.5872 515.676L72.1879 509.304ZM72.1879 509.304L69.7373 512.155" stroke="black" stroke-width="10"/>
<path d="M43.2178 568.329L69.5896 521.216L75.2269 526.072L53.8965 574.256L43.2178 568.329Z" fill="black" stroke="black" stroke-width="10"/>
<path d="M48.5374 586.037L47.8451 587.601L46.1201 584.696L48.5374 586.037Z" fill="black" stroke="black" stroke-width="10"/>
<path d="M144.156 451.31L140.992 549.209L113.746 476.287L133.182 434.131L144.156 451.31Z" fill="black"/>
<path d="M109.707 476.079L109.709 476.081M144.156 451.31L140.992 549.209L113.746 476.287L133.182 434.131L144.156 451.31Z" stroke="black" stroke-width="10"/>
<path d="M139.473 575.004L50.4597 606.931C50.3353 606.976 50.2181 606.849 50.2716 606.728L59.3055 586.321L64.3381 574.953L88.4631 520.456L96.4411 502.434L102.002 489.871L105.012 483.072C105.067 482.949 105.244 482.954 105.291 483.08L139.563 574.81C139.592 574.888 139.552 574.976 139.473 575.004Z" fill="black"/>
<mask id="mask3_1173_1232" style="mask-type:luminance" maskUnits="userSpaceOnUse" x="50" y="482" width="90" height="125">
<path d="M139.473 575.004L50.4597 606.931C50.3353 606.976 50.2181 606.849 50.2716 606.728L59.3055 586.321L64.3381 574.953L88.4631 520.456L96.4411 502.434L102.002 489.871L105.012 483.072C105.067 482.949 105.244 482.954 105.291 483.08L139.563 574.81C139.592 574.888 139.552 574.976 139.473 575.004Z" fill="white"/>
</mask>
<g mask="url(#mask3_1173_1232)">
<path d="M139.563 574.81L146.602 572.175H146.602L139.563 574.81ZM52.9943 614.014L142.008 582.087L136.938 567.922L47.9247 599.849L52.9943 614.014ZM146.602 572.175L112.329 480.445L98.2513 485.716L132.524 577.446L146.602 572.175ZM98.1416 480.024L95.1311 486.824L108.873 492.92L111.883 486.12L98.1416 480.024ZM95.1311 486.824L89.5698 499.387L103.311 505.483L108.873 492.92L95.1311 486.824ZM89.5698 499.387L81.5925 517.407L95.334 523.503L103.311 505.483L89.5698 499.387ZM81.5925 517.407L57.4673 571.905L71.2087 578.001L95.334 523.503L81.5925 517.407ZM57.4673 571.905L52.4345 583.274L66.176 589.37L71.2087 578.001L57.4673 571.905ZM52.4345 583.274L43.4007 603.68L57.142 609.777L66.176 589.37L52.4345 583.274ZM142.008 582.087C146.031 580.643 148.099 576.183 146.602 572.175L132.524 577.446C131.085 573.594 133.071 569.309 136.938 567.922L142.008 582.087ZM47.9247 599.849C54.0217 597.662 59.7657 603.85 57.142 609.777L43.4007 603.68C40.6699 609.849 46.6485 616.29 52.9943 614.014L47.9247 599.849ZM112.329 480.445C109.924 474.006 100.924 473.739 98.1416 480.024L111.883 486.12C109.21 492.16 100.563 491.902 98.2513 485.716L112.329 480.445Z" fill="black"/>
</g>
<path d="M56.8237 616.003L132.619 588.817L109.064 641.916L100.251 661.785L56.8237 616.003Z" fill="black" stroke="black" stroke-width="10"/>
<path d="M124.846 654.157L114.72 659.755L119.264 649.513L124.846 654.157Z" fill="black"/>
<path d="M107.067 668.112L106.929 668.05M124.846 654.157L114.72 659.755L119.264 649.513L124.846 654.157Z" stroke="black" stroke-width="10"/>
<path d="M154.662 548.244L157.447 462.073L178.05 492.733L154.662 548.244Z" fill="black" stroke="black" stroke-width="10"/>
<path d="M190.266 486.542L179.246 470.071L204.49 487.52L190.266 486.542ZM188.5 486.421C188.501 486.421 188.502 486.421 188.503 486.421H188.5ZM191.25 488.015L191.249 488.012C191.249 488.012 191.249 488.013 191.25 488.015Z" fill="black"/>
<path d="M191.25 488.015L191.249 488.012C191.249 488.012 191.249 488.013 191.25 488.015ZM191.25 488.015L188.253 490.024M190.266 486.542L179.246 470.071L204.49 487.52L190.266 486.542ZM188.5 486.421C188.501 486.421 188.502 486.421 188.503 486.421H188.5Z" stroke="black" stroke-width="10"/>
<path d="M221.906 644.845L224.662 645.346H222.316L221.906 644.845Z" fill="black" stroke="black" stroke-width="10"/>
<path d="M214.574 632.301L208.403 622.847H211.182L218.489 633.012L214.574 632.301Z" fill="black" stroke="black" stroke-width="10"/>
<path d="M195.077 599.487L204.808 613.027H200.493H176.426L195.077 599.487Z" fill="black" stroke="black" stroke-width="10"/>
<path d="M188.434 525.846L179.738 513.123C179.709 513.081 179.704 513.028 179.724 512.981L185.916 497.914C185.975 497.768 186.19 497.801 186.205 497.957L188.707 525.747C188.721 525.902 188.521 525.974 188.434 525.846Z" fill="black"/>
<mask id="mask4_1173_1232" style="mask-type:luminance" maskUnits="userSpaceOnUse" x="179" y="497" width="10" height="29">
<path d="M188.434 525.846L179.738 513.123C179.709 513.081 179.704 513.028 179.724 512.981L185.916 497.914C185.975 497.768 186.19 497.801 186.205 497.957L188.707 525.747C188.721 525.902 188.521 525.974 188.434 525.846Z" fill="white"/>
</mask>
<g mask="url(#mask4_1173_1232)">
<path d="M179.738 513.123L185.941 508.875H185.94L179.738 513.123ZM173.536 517.372L182.231 530.094L194.636 521.598L185.941 508.875L173.536 517.372ZM186.673 515.844L192.865 500.776L178.966 495.051L172.773 510.119L186.673 515.844ZM178.719 498.633L181.223 526.423L196.192 525.072L193.689 497.282L178.719 498.633ZM192.865 500.776C189.934 507.91 179.412 506.316 178.719 498.633L193.689 497.282C192.969 489.286 182.017 487.626 178.966 495.051L192.865 500.776ZM185.94 508.875C187.342 510.926 187.617 513.545 186.673 515.844L172.773 510.119C171.79 512.51 172.077 515.237 173.536 517.372L185.94 508.875ZM182.231 530.094C186.691 536.618 196.902 532.946 196.192 525.072L181.223 526.423C180.541 518.858 190.351 515.329 194.636 521.598L182.231 530.094Z" fill="black"/>
</g>
<path d="M145.813 592.236L177.728 516.488C177.773 516.378 177.922 516.363 177.99 516.461L181.105 521.019L190.146 534.246C190.162 534.271 190.172 534.301 190.172 534.331V583.637C190.172 583.669 190.182 583.702 190.202 583.727L195.299 590.452C195.349 590.52 195.336 590.616 195.267 590.665L164.35 613.11C164.324 613.129 164.293 613.139 164.262 613.139H157.754C157.7 613.139 157.651 613.11 157.624 613.063L145.821 592.369C145.798 592.328 145.795 592.279 145.813 592.236Z" fill="black"/>
<mask id="mask5_1173_1232" style="mask-type:luminance" maskUnits="userSpaceOnUse" x="145" y="516" width="51" height="98">
<path d="M145.813 592.236L177.728 516.488C177.773 516.378 177.922 516.363 177.99 516.461L181.105 521.019L190.146 534.246C190.162 534.271 190.172 534.301 190.172 534.331V583.637C190.172 583.669 190.182 583.702 190.202 583.727L195.299 590.452C195.349 590.52 195.336 590.616 195.267 590.665L164.35 613.11C164.324 613.129 164.293 613.139 164.262 613.139H157.754C157.7 613.139 157.651 613.11 157.624 613.063L145.821 592.369C145.798 592.328 145.795 592.279 145.813 592.236Z" fill="white"/>
</mask>
<g mask="url(#mask5_1173_1232)">
<path d="M195.299 590.452L189.311 594.999V595L195.299 590.452ZM164.35 613.11L168.76 619.202L168.762 619.201L164.35 613.11ZM145.821 592.369L139.294 596.099L139.295 596.099L145.821 592.369ZM170.803 513.564L138.888 589.312L152.737 595.16L184.651 519.411L170.803 513.564ZM182.657 534.331V583.637H197.687V534.331H182.657ZM184.214 588.274L189.311 594.999L201.286 585.906L196.189 579.181L184.214 588.274ZM190.855 584.575L159.938 607.02L168.762 619.201L199.678 596.756L190.855 584.575ZM164.262 605.615H157.754V620.662H164.262V605.615ZM164.15 609.333L152.347 588.639L139.295 596.099L151.097 616.793L164.15 609.333ZM171.787 520.71L174.902 525.267L187.307 516.771L184.192 512.213L171.787 520.71ZM174.902 525.267L183.943 538.495L196.348 529.998L187.307 516.771L174.902 525.267ZM157.754 605.615C160.398 605.615 162.84 607.034 164.15 609.333L151.097 616.793C152.462 619.186 155.003 620.662 157.754 620.662V605.615ZM159.939 607.019C161.196 606.107 162.708 605.615 164.262 605.615V620.662C165.878 620.662 167.453 620.15 168.76 619.202L159.939 607.019ZM189.311 595C186.815 591.706 187.512 587.002 190.855 584.575L199.678 596.756C203.158 594.23 203.884 589.334 201.285 585.905L189.311 595ZM182.657 583.637C182.657 585.312 183.204 586.941 184.215 588.275L196.189 579.181C197.161 580.464 197.687 582.028 197.687 583.637H182.657ZM197.687 534.331C197.687 532.785 197.219 531.274 196.348 529.998L183.943 538.495C183.105 537.269 182.657 535.817 182.657 534.331H197.687ZM184.651 519.411C182.386 524.787 175.078 525.524 171.787 520.71L184.192 512.213C180.766 507.202 173.16 507.969 170.802 513.564L184.651 519.411ZM138.888 589.312C137.961 591.515 138.111 594.024 139.294 596.099L152.347 588.639C153.484 590.633 153.629 593.043 152.737 595.16L138.888 589.312Z" fill="black"/>
</g>
<path d="M229.51 665.651L237.73 657.964L243.255 665.651H229.51Z" fill="black"/>
<path d="M238.385 652.435L238.381 652.438L238.374 652.443M229.51 665.651L237.73 657.964L243.255 665.651H229.51Z" stroke="black" stroke-width="10"/>
<path d="M248.8 652.578L239.208 639.232L234.41 632.557L229.869 626.238L216.004 606.947L201.74 587.099L275.309 611.848V623.367L248.8 652.578ZM277.767 612.675C277.766 612.675 277.765 612.675 277.764 612.674L277.767 612.675Z" fill="black"/>
<path d="M277.767 612.675C277.766 612.675 277.765 612.675 277.764 612.674L277.767 612.675ZM277.767 612.675L278.916 609.252M248.8 652.578L239.208 639.232L234.41 632.557L229.869 626.238L216.004 606.947L201.74 587.099L275.309 611.848V623.367L248.8 652.578Z" stroke="black" stroke-width="10"/>
<path d="M197.886 526.322V526.153L197.87 525.984L195.753 502.479L279.612 526.619L283.35 564.26L278.556 600.158L197.886 573.02V526.322ZM281.963 527.296L281.96 527.295L281.963 527.296ZM279.371 524.187C279.371 524.186 279.37 524.184 279.37 524.183L279.371 524.187Z" fill="black" stroke="black" stroke-width="10"/>
<path d="M82.2737 410.661L70.7488 400.907L71.6642 400.104L96.6555 410.661H82.2737Z" fill="black"/>
<path d="M65.124 401.073L65.1708 401.017L65.1757 401.012M82.2737 410.661L70.7488 400.907L71.6642 400.104L96.6555 410.661H82.2737Z" stroke="black" stroke-width="10"/>
<path d="M531.866 264.436H535.351L533.594 266.058L531.866 264.436Z" fill="black"/>
<path d="M531.128 268.334V268.333M531.866 264.436H535.351L533.594 266.058L531.866 264.436Z" stroke="black" stroke-width="10"/>
<path d="M488.392 272.526L487.576 267.426L518.086 264.853L516.62 277.119L488.392 272.526Z" fill="black" stroke="black" stroke-width="10"/>
<path d="M535.266 288.861L535.392 289.013L535.532 289.151L537.068 290.659L543.241 350.98L526.074 357.451L529.418 291.999C529.446 291.45 529.358 290.9 529.159 290.386L528.396 288.415L529.136 281.43L535.266 288.861Z" fill="black" stroke="black" stroke-width="10"/>
<path d="M578.133 365.002L564.26 406.458L534.267 381.585L578.133 365.002Z" fill="black" stroke="black" stroke-width="10"/>
<path d="M671.167 419.324L680.077 390.086L692.082 430.397L694.483 439.906L671.167 419.324Z" fill="black" stroke="black" stroke-width="10"/>
<path d="M664.181 366.023L670.714 371.844L669.888 374.151L662.764 368.484L664.181 366.023Z" fill="black" stroke="black" stroke-width="10"/>
<path d="M574.63 412.795L589.258 377.675L612.977 418.858H593.032L575.212 414.382L574.63 412.795ZM655.5 418.858H630.965L655.511 379.687L665.119 387.3L655.5 418.858ZM667.048 388.829C667.047 388.828 667.045 388.827 667.044 388.826L667.048 388.829Z" fill="black"/>
<path d="M574.078 414.098L570.757 412.711M624.444 422.469L624.317 422.388M574.63 412.795L589.258 377.675L612.977 418.858H593.032L575.212 414.382L574.63 412.795ZM655.5 418.858H630.965L655.511 379.687L665.119 387.3L655.5 418.858ZM667.048 388.829C667.047 388.828 667.045 388.827 667.044 388.826L667.048 388.829Z" stroke="black" stroke-width="10"/>
<path d="M591.68 345.18L591.669 345.159L591.657 345.137L590.037 342.195L640.649 314.82L640.839 314.717L641.016 314.594L672.172 292.783L706.182 279.807L623.1 403.975L591.68 345.18ZM586.836 343.926L586.841 343.924C586.839 343.925 586.838 343.926 586.836 343.926Z" fill="black" stroke="black" stroke-width="10"/>
<path d="M534.595 257.011L516.081 258.159L539.342 251.272L534.595 257.011Z" fill="black" stroke="black" stroke-width="10"/>
<path d="M554.637 338.816L564.04 335.102L560.58 346.137C559.588 349.3 562.731 352.187 565.795 350.926L575.844 346.791L578.737 351.284L555.041 360.134C555.991 359.322 556.518 358.079 556.391 356.78L554.637 338.816Z" fill="black" stroke="black" stroke-width="10"/>
<path d="M670.295 229.634V220.803C670.295 220.794 670.289 220.788 670.28 220.788L641.397 220.116C641.388 220.116 641.381 220.123 641.381 220.131V223.846C641.381 223.852 641.385 223.857 641.391 223.86L658.258 230.814C658.261 230.815 658.264 230.815 658.266 230.815L670.282 229.649C670.289 229.648 670.295 229.641 670.295 229.634Z" fill="black"/>
<mask id="mask6_1173_1232" style="mask-type:luminance" maskUnits="userSpaceOnUse" x="641" y="220" width="30" height="11">
<path d="M670.295 229.634V220.803C670.295 220.794 670.289 220.788 670.28 220.788L641.397 220.116C641.388 220.116 641.381 220.123 641.381 220.131V223.846C641.381 223.852 641.385 223.857 641.391 223.86L658.258 230.814C658.261 230.815 658.264 230.815 658.266 230.815L670.282 229.649C670.289 229.648 670.295 229.641 670.295 229.634Z" fill="white"/>
</mask>
<g mask="url(#mask6_1173_1232)">
<path d="M670.295 220.803H662.78V220.802L670.295 220.803ZM658.266 230.815L657.538 223.328H657.54L658.266 230.815ZM658.258 230.814L655.397 237.771H655.397L658.258 230.814ZM641.391 223.86L644.251 216.903L644.252 216.903L641.391 223.86ZM641.397 220.116L641.222 227.638H641.222L641.397 220.116ZM670.28 220.788L670.107 228.309H670.106L670.28 220.788ZM641.381 223.846L633.866 223.847V223.846H641.381ZM677.811 220.803V229.633H662.78V220.803H677.811ZM671.008 237.136L658.991 238.303L657.54 223.328L669.556 222.161L671.008 237.136ZM655.397 237.771L638.529 230.816L644.252 216.903L661.12 223.858L655.397 237.771ZM641.571 212.595L670.455 213.266L670.106 228.309L641.222 227.638L641.571 212.595ZM633.866 223.846V220.131H648.896V223.846H633.866ZM641.222 227.638C645.432 227.735 648.896 224.346 648.896 220.132L633.866 220.131C633.866 215.9 637.344 212.496 641.571 212.595L641.222 227.638ZM638.53 230.817C635.707 229.653 633.866 226.9 633.866 223.847L648.896 223.844C648.895 220.803 647.062 218.061 644.251 216.903L638.53 230.817ZM658.994 238.303C657.768 238.423 656.534 238.239 655.397 237.771L661.119 223.857C659.988 223.391 658.758 223.209 657.538 223.328L658.994 238.303ZM677.811 229.633C677.811 233.515 674.865 236.762 671.008 237.136L669.556 222.161C665.713 222.534 662.78 225.767 662.78 229.633H677.811ZM662.78 220.802C662.78 224.882 666.034 228.214 670.107 228.309L670.455 213.266C674.544 213.362 677.811 216.707 677.811 220.803L662.78 220.802Z" fill="black"/>
</g>
<path d="M695.046 252.109L695.047 244.467C695.047 244.46 695.042 244.454 695.035 244.453L677.078 240.048C677.078 240.048 677.076 240.047 677.074 240.047L659.108 240.258C659.107 240.258 659.105 240.258 659.104 240.259L651.163 243.229C651.155 243.232 651.151 243.239 651.153 243.246L652.696 251.868C652.696 251.871 652.696 251.875 652.694 251.878L650.89 255.062C650.884 255.073 650.893 255.086 650.906 255.085L672.096 251.999L672.098 251.998L695.031 252.124C695.039 252.124 695.046 252.117 695.046 252.109Z" fill="black"/>
<mask id="mask7_1173_1232" style="mask-type:luminance" maskUnits="userSpaceOnUse" x="650" y="240" width="46" height="16">
<path d="M695.046 252.109L695.047 244.467C695.047 244.46 695.042 244.454 695.035 244.453L677.078 240.048C677.078 240.048 677.076 240.047 677.074 240.047L659.108 240.258C659.107 240.258 659.105 240.258 659.104 240.259L651.163 243.229C651.155 243.232 651.151 243.239 651.153 243.246L652.696 251.868C652.696 251.871 652.696 251.875 652.694 251.878L650.89 255.062C650.884 255.073 650.893 255.086 650.906 255.085L672.096 251.999L672.098 251.998L695.031 252.124C695.039 252.124 695.046 252.117 695.046 252.109Z" fill="white"/>
</mask>
<g mask="url(#mask7_1173_1232)">
<path d="M695.046 244.467L702.562 244.468V244.469L695.046 244.467ZM672.098 251.998L671.579 244.493L671.858 244.474L672.139 244.475L672.098 251.998ZM651.153 243.246L658.55 241.918V241.92L651.153 243.246ZM652.695 251.868L645.299 253.198L645.298 253.195L652.695 251.868ZM672.096 251.999L671.014 244.554L671.294 244.513L671.577 244.493L672.096 251.999ZM677.074 240.047L677.163 247.57H677.162L677.074 240.047ZM702.562 244.469L702.561 252.111L687.53 252.108L687.531 244.466L702.562 244.469ZM694.989 259.647L672.057 259.521L672.139 244.475L695.072 244.601L694.989 259.647ZM661.734 247.306L653.793 250.276L648.531 236.182L656.473 233.212L661.734 247.306ZM658.55 241.92L660.093 250.541L645.298 253.195L643.755 244.573L658.55 241.92ZM673.177 259.444L651.988 262.53L649.823 247.64L671.014 244.554L673.177 259.444ZM659.231 255.589L657.427 258.774L644.353 251.351L646.157 248.167L659.231 255.589ZM659.02 232.735L676.987 232.525L677.162 247.57L659.196 247.78L659.02 232.735ZM678.866 232.741L696.824 237.145L693.247 251.76L675.289 247.354L678.866 232.741ZM676.985 232.525C677.621 232.517 678.253 232.59 678.866 232.741L675.29 247.355C675.901 247.505 676.531 247.578 677.163 247.57L676.985 232.525ZM651.988 262.53C645.789 263.432 641.263 256.806 644.353 251.351L657.427 258.773C660.505 253.341 655.997 246.741 649.823 247.64L651.988 262.53ZM660.093 250.538C660.404 252.273 660.098 254.06 659.231 255.589L646.157 248.167C645.294 249.69 644.989 251.47 645.299 253.198L660.093 250.538ZM653.793 250.276C657.186 249.007 659.189 245.49 658.55 241.918L643.755 244.574C643.113 240.988 645.125 237.457 648.531 236.182L653.793 250.276ZM656.473 233.212C657.287 232.906 658.15 232.745 659.022 232.735L659.196 247.78C660.064 247.77 660.922 247.609 661.734 247.306L656.473 233.212ZM672.617 259.504H672.614L671.577 244.493L671.579 244.493L672.617 259.504ZM702.561 252.111C702.56 256.29 699.164 259.671 694.989 259.647L695.072 244.601C690.914 244.578 687.53 247.946 687.53 252.108L702.561 252.111ZM687.531 244.466C687.531 247.925 689.891 250.937 693.247 251.76L696.824 237.145C700.194 237.971 702.562 240.996 702.562 244.468L687.531 244.466Z" fill="black"/>
</g>
<path d="M687.305 217.044L675.766 221.621C675.761 221.623 675.757 221.628 675.757 221.634V229.846C675.757 229.853 675.761 229.859 675.768 229.861L680.737 231.447C680.741 231.449 680.747 231.448 680.75 231.445L688.255 226.099C688.258 226.098 688.261 226.096 688.264 226.097L708.98 226.853C708.986 226.854 708.992 226.85 708.994 226.843L710.275 223.387C710.278 223.379 710.274 223.37 710.265 223.367L687.314 217.044C687.311 217.043 687.308 217.043 687.305 217.044Z" fill="black"/>
<mask id="mask8_1173_1232" style="mask-type:luminance" maskUnits="userSpaceOnUse" x="675" y="217" width="36" height="15">
<path d="M687.305 217.044L675.766 221.621C675.761 221.623 675.757 221.628 675.757 221.634V229.846C675.757 229.853 675.761 229.859 675.768 229.861L680.737 231.447C680.741 231.449 680.747 231.448 680.75 231.445L688.255 226.099C688.258 226.098 688.261 226.096 688.264 226.097L708.98 226.853C708.986 226.854 708.992 226.85 708.994 226.843L710.275 223.387C710.278 223.379 710.274 223.37 710.265 223.367L687.314 217.044C687.311 217.043 687.308 217.043 687.305 217.044Z" fill="white"/>
</mask>
<g mask="url(#mask8_1173_1232)">
<path d="M687.314 217.044L685.32 224.297H685.32L687.314 217.044ZM708.98 226.853L708.706 234.372H708.705L708.98 226.853ZM688.264 226.097L688.537 218.578H688.538L688.264 226.097ZM680.737 231.447L683.02 224.28H683.021L680.737 231.447ZM675.768 229.861L673.485 237.029L673.484 237.028L675.768 229.861ZM675.757 229.846H683.272V229.847L675.757 229.846ZM672.999 214.626L684.537 210.05L690.073 224.039L678.534 228.615L672.999 214.626ZM689.309 209.79L712.259 216.114L708.271 230.621L685.32 224.297L689.309 209.79ZM717.321 226.004L716.04 229.46L701.948 224.227L703.229 220.77L717.321 226.004ZM708.705 234.372L687.991 233.615L688.538 218.578L709.254 219.335L708.705 234.372ZM692.612 232.229L685.108 237.575L676.393 225.316L683.898 219.97L692.612 232.229ZM678.454 238.615L673.485 237.029L678.051 222.693L683.02 224.28L678.454 238.615ZM668.242 229.846V221.634H683.272V229.846H668.242ZM673.484 237.028C670.362 236.031 668.241 233.129 668.242 229.846L683.272 229.847C683.272 226.578 681.161 223.686 678.051 222.693L673.484 237.028ZM685.108 237.575C683.177 238.95 680.713 239.336 678.454 238.615L683.021 224.28C680.771 223.562 678.316 223.946 676.393 225.316L685.108 237.575ZM687.991 233.615C689.641 233.675 691.266 233.188 692.612 232.229L683.898 219.97C685.25 219.007 686.881 218.518 688.537 218.578L687.991 233.615ZM716.04 229.46C714.91 232.51 711.953 234.49 708.706 234.372L709.253 219.335C706.019 219.217 703.074 221.189 701.948 224.227L716.04 229.46ZM712.259 216.114C716.517 217.287 718.857 221.859 717.321 226.004L703.229 220.77C701.7 224.898 704.03 229.452 708.271 230.621L712.259 216.114ZM684.537 210.05C686.058 209.447 687.733 209.356 689.309 209.791L685.32 224.297C686.89 224.73 688.559 224.64 690.073 224.039L684.537 210.05ZM678.534 228.615C681.394 227.481 683.272 224.714 683.272 221.634L668.242 221.635C668.242 218.542 670.128 215.764 672.999 214.626L678.534 228.615Z" fill="black"/>
</g>
<path d="M617.322 301.73L606.891 310.907H649.54L649.214 310.035V310.034C647.712 306.011 653.015 302.998 655.695 306.354L659.331 310.907H675.085L669.725 297.217L658.94 288.62H623.763L618.257 300.48C618.257 300.48 618.256 300.481 618.256 300.482C618.035 300.957 617.718 301.382 617.322 301.73Z" fill="black"/>
<path d="M672.852 294.9L672.842 294.912M621.362 284.867L621.375 284.873M617.322 301.73L606.891 310.907H649.54L649.214 310.035V310.034C647.712 306.011 653.015 302.998 655.695 306.354L659.331 310.907H675.085L669.725 297.217L658.94 288.62H623.763L618.257 300.48C618.257 300.48 618.256 300.481 618.256 300.482C618.035 300.957 617.718 301.382 617.322 301.73Z" stroke="black" stroke-width="10"/>
<path d="M639.836 307.895L638.751 289.984C638.751 289.976 638.744 289.97 638.736 289.97H613.772C613.769 289.97 613.766 289.971 613.763 289.973L604.971 297.145C604.969 297.146 604.968 297.147 604.968 297.148L597.709 306.801C597.701 306.811 597.708 306.825 597.72 306.825L639.821 307.911C639.829 307.912 639.836 307.904 639.836 307.895Z" fill="black"/>
<mask id="mask9_1173_1232" style="mask-type:luminance" maskUnits="userSpaceOnUse" x="597" y="289" width="43" height="19">
<path d="M639.836 307.895L638.751 289.984C638.751 289.976 638.744 289.97 638.736 289.97H613.772C613.769 289.97 613.766 289.971 613.763 289.973L604.971 297.145C604.969 297.146 604.968 297.147 604.968 297.148L597.709 306.801C597.701 306.811 597.708 306.825 597.72 306.825L639.821 307.911C639.829 307.912 639.836 307.904 639.836 307.895Z" fill="white"/>
</mask>
<g mask="url(#mask9_1173_1232)">
<path d="M597.72 306.825L597.527 314.346H597.526L597.72 306.825ZM597.709 306.801L591.704 302.277L591.705 302.276L597.709 306.801ZM604.968 297.148L610.976 301.668L610.972 301.673L604.968 297.148ZM613.763 289.973L618.511 295.805L618.511 295.805L613.763 289.973ZM646.253 289.529L647.337 307.44L632.335 308.35L631.25 290.439L646.253 289.529ZM639.628 315.432L597.527 314.346L597.914 299.305L640.014 300.391L639.628 315.432ZM591.705 302.276L598.964 292.623L610.972 301.673L603.713 311.326L591.705 302.276ZM600.223 291.313L609.016 284.141L618.511 295.805L609.717 302.978L600.223 291.313ZM613.772 282.447H638.736V297.493H613.772V282.447ZM609.015 284.142C610.359 283.045 612.04 282.447 613.772 282.447V297.493C615.499 297.493 617.173 296.897 618.511 295.805L609.015 284.142ZM598.96 292.628C599.325 292.142 599.749 291.7 600.223 291.313L609.717 302.978C610.189 302.593 610.612 302.153 610.976 301.668L598.96 292.628ZM597.526 314.346C591.405 314.188 588.024 307.172 591.704 302.277L603.713 311.325C607.379 306.449 604.012 299.462 597.914 299.305L597.526 314.346ZM647.337 307.44C647.604 311.853 644.04 315.546 639.628 315.432L640.014 300.391C635.619 300.277 632.068 303.956 632.335 308.35L647.337 307.44ZM631.25 290.439C631.49 294.403 634.771 297.493 638.736 297.493V282.447C642.718 282.447 646.012 285.549 646.253 289.529L631.25 290.439Z" fill="black"/>
</g>
<path d="M601.654 323.515V326.937L604.9 323.515H601.654Z" fill="black" stroke="black" stroke-width="10"/>
<path d="M683.033 366.52H690.27C690.275 366.52 690.278 366.522 690.281 366.526L693.406 370.343C693.411 370.35 693.421 370.351 693.427 370.345L708.159 356.068C708.166 356.061 708.165 356.05 708.157 356.045L703.878 353.126C703.873 353.123 703.871 353.119 703.871 353.114V343.032C703.871 343.023 703.864 343.017 703.856 343.017H694.37C694.362 343.017 694.355 343.01 694.355 343.002V338.06C694.355 338.052 694.349 338.045 694.34 338.045H684.396C684.39 338.045 684.384 338.042 684.382 338.037L676.234 322.234C676.232 322.229 676.227 322.226 676.221 322.226H639.088C639.08 322.226 639.073 322.232 639.073 322.241V323.577C639.073 323.58 639.074 323.583 639.075 323.585L650.399 344.369C650.401 344.372 650.402 344.374 650.405 344.375L665.351 354.314C665.354 354.316 665.356 354.317 665.359 354.317H668.549C668.539 354.317 668.531 354.328 668.536 354.338L671.242 360.635C671.244 360.641 671.249 360.644 671.255 360.644H677.624C677.611 360.644 677.604 360.66 677.612 360.67L683.023 366.515C683.026 366.518 683.029 366.52 683.033 366.52Z" fill="black"/>
<mask id="mask10_1173_1232" style="mask-type:luminance" maskUnits="userSpaceOnUse" x="639" y="322" width="70" height="49">
<path d="M683.033 366.52H690.27C690.275 366.52 690.278 366.522 690.281 366.526L693.406 370.343C693.411 370.35 693.421 370.351 693.427 370.345L708.159 356.068C708.166 356.061 708.165 356.05 708.157 356.045L703.878 353.126C703.873 353.123 703.871 353.119 703.871 353.114V343.032C703.871 343.023 703.864 343.017 703.856 343.017H694.37C694.362 343.017 694.355 343.01 694.355 343.002V338.06C694.355 338.052 694.349 338.045 694.34 338.045H684.396C684.39 338.045 684.384 338.042 684.382 338.037L676.234 322.234C676.232 322.229 676.227 322.226 676.221 322.226H639.088C639.08 322.226 639.073 322.232 639.073 322.241V323.577C639.073 323.58 639.074 323.583 639.075 323.585L650.399 344.369C650.401 344.372 650.402 344.374 650.405 344.375L665.351 354.314C665.354 354.316 665.356 354.317 665.359 354.317H668.549C668.539 354.317 668.531 354.328 668.536 354.338L671.242 360.635C671.244 360.641 671.249 360.644 671.255 360.644H677.624C677.611 360.644 677.604 360.66 677.612 360.67L683.023 366.515C683.026 366.518 683.029 366.52 683.033 366.52Z" fill="white"/>
</mask>
<g mask="url(#mask10_1173_1232)">
<path d="M677.624 356.883H683.027V364.406H677.624V356.883ZM668.549 350.555H672.152V358.078H668.549V350.555ZM683.023 366.515L688.536 361.403V361.403L683.023 366.515ZM665.351 354.314L661.194 360.582L661.193 360.58L665.351 354.314ZM650.405 344.375L654.562 338.108L654.563 338.109L650.405 344.375ZM676.234 322.234L682.912 318.782V318.783L676.234 322.234ZM693.406 370.343L699.219 365.576V365.577L693.406 370.343ZM690.282 366.526L684.468 371.293V371.293L690.282 366.526ZM703.878 353.126L699.646 359.344L699.645 359.343L703.878 353.126ZM708.157 356.045L703.926 362.263V362.262L708.157 356.045ZM690.27 374.043H683.033V358.997H690.27V374.043ZM677.51 371.628L672.1 365.783L683.126 355.557L688.536 361.403L677.51 371.628ZM677.624 368.168H671.255V353.121H677.624V368.168ZM664.338 363.608L661.632 357.31L675.439 351.365L678.145 357.663L664.338 363.608ZM668.549 361.84H665.359V346.793H668.549V361.84ZM661.193 360.58L646.246 350.641L654.563 338.109L669.51 348.047L661.193 360.58ZM643.802 347.972L632.477 327.187L645.672 319.983L656.997 340.767L643.802 347.972ZM682.912 318.783L691.06 334.586L677.704 341.488L669.556 325.684L682.912 318.783ZM684.396 330.522H694.34V345.569H684.396V330.522ZM701.871 338.06V343.002H686.84V338.06H701.871ZM694.37 335.493H703.856V350.54H694.37V335.493ZM711.386 343.032V353.114H696.356V343.032H711.386ZM676.221 329.749H639.088V314.702H676.221V329.749ZM646.588 322.241V323.577H631.558V322.241H646.588ZM687.592 375.111L684.468 371.293L696.095 361.759L699.219 365.576L687.592 375.111ZM708.109 346.908L712.388 349.827L703.926 362.262L699.646 359.344L708.109 346.908ZM713.386 361.473L698.655 375.749L688.2 364.939L702.932 350.663L713.386 361.473ZM712.388 349.827C716.331 352.516 716.815 358.152 713.386 361.473L702.932 350.663C699.517 353.971 699.999 359.584 703.926 362.263L712.388 349.827ZM699.219 365.577C696.439 362.178 691.352 361.884 688.2 364.939L698.655 375.749C695.49 378.817 690.382 378.522 687.592 375.11L699.219 365.577ZM639.088 329.749C643.231 329.749 646.588 326.387 646.588 322.241H631.558C631.558 318.077 634.929 314.702 639.088 314.702V329.749ZM703.856 335.493C708.014 335.493 711.386 338.868 711.386 343.032H696.356C696.356 347.179 699.715 350.54 703.856 350.54V335.493ZM701.871 343.002C701.871 338.856 698.513 335.493 694.37 335.493V350.54C690.212 350.54 686.84 347.165 686.84 343.002H701.871ZM694.34 330.522C698.498 330.522 701.871 333.896 701.871 338.06H686.84C686.84 342.208 690.199 345.569 694.34 345.569V330.522ZM632.477 327.187C631.874 326.08 631.558 324.838 631.558 323.577H646.588C646.588 322.322 646.273 321.086 645.672 319.983L632.477 327.187ZM646.247 350.642C645.226 349.964 644.387 349.047 643.802 347.972L656.997 340.767C656.414 339.697 655.579 338.784 654.562 338.108L646.247 350.642ZM665.359 361.84C663.876 361.84 662.427 361.401 661.194 360.582L669.508 348.047C668.28 347.23 666.837 346.793 665.359 346.793V361.84ZM661.632 357.31C659.494 352.333 663.141 346.793 668.549 346.793V361.84C673.937 361.84 677.568 356.322 675.439 351.365L661.632 357.31ZM672.1 365.783C667.633 360.956 671.054 353.121 677.624 353.121V368.168C684.167 368.168 687.575 360.364 683.126 355.557L672.1 365.783ZM683.033 374.043C680.936 374.043 678.934 373.168 677.509 371.628L688.536 361.403C687.117 359.869 685.122 358.997 683.033 358.997V374.043ZM691.06 334.586C689.773 332.091 687.202 330.522 684.396 330.522V345.569C681.577 345.569 678.996 343.993 677.704 341.488L691.06 334.586ZM690.27 358.997C692.528 358.997 694.666 360.011 696.095 361.759L684.468 371.293C685.892 373.034 688.021 374.043 690.27 374.043V358.997ZM671.255 368.168C668.246 368.168 665.527 366.375 664.338 363.608L678.145 357.663C676.961 354.907 674.252 353.121 671.255 353.121V368.168ZM669.556 325.685C670.844 328.18 673.414 329.749 676.221 329.749V314.702C679.039 314.702 681.62 316.278 682.912 318.782L669.556 325.685ZM711.386 353.114C711.386 350.629 710.159 348.308 708.11 346.91L699.645 359.343C697.588 357.939 696.356 355.608 696.356 353.114H711.386Z" fill="black"/>
</g>
<path d="M612.459 251.781L625.438 266.17C625.441 266.173 625.445 266.175 625.449 266.175H644.838C644.84 266.175 644.841 266.175 644.842 266.175L668.824 260.312C668.839 260.309 668.839 260.286 668.824 260.283L653.111 256.735C653.099 256.732 653.095 256.716 653.104 256.709L661.768 249.497C661.77 249.495 661.771 249.493 661.772 249.49L665.352 236.891C665.354 236.884 665.36 236.881 665.367 236.881H668.886H672.347C672.363 236.881 672.368 236.858 672.353 236.851L653.084 227.965C653.082 227.964 653.08 227.963 653.079 227.961L647.329 221.553C647.326 221.55 647.321 221.548 647.317 221.548H641.03C641.027 221.548 641.022 221.546 641.02 221.543L637.878 218.073C637.875 218.07 637.872 218.068 637.867 218.068H630.27L628.541 216.012C628.536 216.007 628.528 216.005 628.521 216.009C622.179 219.838 614.083 226.153 610.827 228.834L612.43 224.769C612.435 224.754 612.416 224.741 612.405 224.752L607.573 229.591C607.57 229.593 607.568 229.597 607.568 229.601V239.268C607.568 239.271 607.569 239.274 607.571 239.276L611.478 245.036L612.455 251.773C612.456 251.776 612.457 251.779 612.459 251.781Z" fill="black"/>
<mask id="mask11_1173_1232" style="mask-type:luminance" maskUnits="userSpaceOnUse" x="607" y="216" width="66" height="51">
<path d="M612.459 251.781L625.438 266.17C625.441 266.173 625.445 266.175 625.449 266.175H644.838C644.84 266.175 644.841 266.175 644.842 266.175L668.824 260.312C668.839 260.309 668.839 260.286 668.824 260.283L653.111 256.735C653.099 256.732 653.095 256.716 653.104 256.709L661.768 249.497C661.77 249.495 661.771 249.493 661.772 249.49L665.352 236.891C665.354 236.884 665.36 236.881 665.367 236.881H668.886H672.347C672.363 236.881 672.368 236.858 672.353 236.851L653.084 227.965C653.082 227.964 653.08 227.963 653.079 227.961L647.329 221.553C647.326 221.55 647.321 221.548 647.317 221.548H641.03C641.027 221.548 641.022 221.546 641.02 221.543L637.878 218.073C637.875 218.07 637.872 218.068 637.867 218.068H630.27L628.541 216.012C628.536 216.007 628.528 216.005 628.521 216.009C622.179 219.838 614.083 226.153 610.827 228.834L612.43 224.769C612.435 224.754 612.416 224.741 612.405 224.752L607.573 229.591C607.57 229.593 607.568 229.597 607.568 229.601V239.268C607.568 239.271 607.569 239.274 607.571 239.276L611.478 245.036L612.455 251.773C612.456 251.776 612.457 251.779 612.459 251.781Z" fill="white"/>
</mask>
<g mask="url(#mask11_1173_1232)">
<path d="M612.446 231.211L609.342 233.33L609.341 233.33L612.446 231.211ZM614.219 237.753L615.197 244.496L607.76 245.576L606.782 238.834L614.219 237.753ZM632.379 221.182C629.786 222.942 625.858 225.719 622.337 228.296C618.68 230.973 615.836 233.166 615.117 233.883L609.819 228.546C611.041 227.329 614.461 224.741 617.901 222.223C621.477 219.606 625.479 216.776 628.161 214.955L632.379 221.182ZM609.341 233.33L607.723 230.952L613.932 226.714L615.55 229.092L609.341 233.33ZM615.117 233.882C614.23 234.765 612.982 235.135 611.789 234.92C610.68 234.719 609.844 234.067 609.342 233.33L615.55 229.091C615.054 228.362 614.225 227.715 613.124 227.516C611.939 227.302 610.699 227.67 609.819 228.546L615.117 233.882ZM612.459 251.781L618.034 246.735L618.037 246.739L612.459 251.781ZM625.438 266.17L631.016 261.128L631.019 261.131L625.438 266.17ZM644.842 266.175L643.049 258.869L643.054 258.867L643.06 258.866L644.842 266.175ZM611.479 245.036L617.695 240.808L618.668 242.241L618.916 243.955L611.479 245.036ZM612.456 251.773L605.019 252.858L605.019 252.854L612.456 251.773ZM607.571 239.276L601.354 243.503L601.353 243.503L607.571 239.276ZM607.573 229.591L612.887 234.91L612.885 234.911L607.573 229.591ZM612.43 224.769L619.42 227.531V227.532L612.43 224.769ZM610.827 228.834L615.6 234.645L593.179 253.099L603.836 226.071L610.827 228.834ZM628.521 216.009L632.403 222.451L632.402 222.452L628.521 216.009ZM628.541 216.012L634.289 211.165L634.289 211.166L628.541 216.012ZM630.27 218.068V225.591H626.774L624.522 222.915L630.27 218.068ZM637.879 218.073L643.447 213.021L643.447 213.021L637.879 218.073ZM641.02 221.543L635.451 226.596V226.595L641.02 221.543ZM647.329 221.553L641.738 226.581L641.737 226.579L647.329 221.553ZM653.079 227.961L647.49 232.99L647.488 232.989L653.079 227.961ZM665.352 236.891L672.581 238.949L672.581 238.95L665.352 236.891ZM661.768 249.497L656.963 243.712L656.964 243.711L661.768 249.497ZM618.037 246.739L631.016 261.128L619.86 271.212L606.882 256.823L618.037 246.739ZM625.449 258.652H644.838V273.699H625.449V258.652ZM643.06 258.866L667.041 253.004L670.606 267.621L646.625 273.483L643.06 258.866ZM618.916 243.955L619.893 250.693L605.019 252.854L604.042 246.117L618.916 243.955ZM605.262 249.263L601.354 243.503L613.787 235.049L617.695 240.808L605.262 249.263ZM600.053 239.268V229.601H615.084V239.268H600.053ZM602.258 224.271L607.091 219.433L617.719 230.072L612.887 234.91L602.258 224.271ZM619.42 227.532L617.817 231.596L603.836 226.071L605.439 222.006L619.42 227.532ZM606.054 223.022C609.39 220.276 617.823 213.682 624.641 209.566L632.402 222.452C626.537 225.992 618.777 232.03 615.6 234.645L606.054 223.022ZM634.289 211.166L636.019 213.222L624.522 222.915L622.792 220.858L634.289 211.166ZM630.27 210.545H637.867V225.591H630.27V210.545ZM643.447 213.021L646.588 216.491L635.451 226.595L632.31 223.125L643.447 213.021ZM641.03 214.025H647.318V229.072H641.03V214.025ZM652.919 216.526L658.67 222.934L647.488 232.989L641.738 226.581L652.919 216.526ZM656.228 221.132L675.498 230.019L669.209 243.685L649.94 234.798L656.228 221.132ZM672.581 238.95L669 251.548L654.544 247.431L658.124 234.833L672.581 238.95ZM666.572 255.282L657.909 262.493L648.3 250.924L656.963 243.712L666.572 255.282ZM654.764 249.396L670.477 252.944L667.17 267.622L651.457 264.074L654.764 249.396ZM672.348 244.404H668.886V229.357H672.348V244.404ZM668.886 244.404H665.367V229.357H668.886V244.404ZM657.909 262.493C662.694 258.511 660.832 250.766 654.765 249.396L651.457 264.074C645.365 262.698 643.496 254.922 648.3 250.924L657.909 262.493ZM669 251.548C668.586 253.009 667.739 254.311 666.571 255.283L656.964 243.711C655.801 244.679 654.958 245.976 654.544 247.431L669 251.548ZM658.124 234.834C659.045 231.592 662.002 229.357 665.367 229.357V244.404C668.719 244.404 671.664 242.178 672.581 238.949L658.124 234.834ZM675.498 230.019C682.833 233.401 680.426 244.404 672.348 244.404V229.357C664.301 229.357 661.904 240.316 669.209 243.685L675.498 230.019ZM658.668 222.933C657.988 222.174 657.158 221.56 656.228 221.132L649.94 234.798C649.006 234.368 648.174 233.752 647.49 232.99L658.668 222.933ZM647.318 214.025C649.454 214.025 651.492 214.934 652.92 216.527L641.737 226.579C643.16 228.166 645.189 229.072 647.318 229.072V214.025ZM624.64 209.567C627.889 207.605 631.962 208.4 634.289 211.165L622.792 220.858C625.11 223.613 629.167 224.405 632.403 222.451L624.64 209.567ZM607.091 219.434C612.87 213.647 622.418 219.926 619.42 227.531L605.439 222.007C602.454 229.581 611.963 235.835 617.719 230.072L607.091 219.434ZM600.053 229.601C600.053 227.602 600.846 225.684 602.26 224.269L612.885 234.911C614.294 233.502 615.084 231.592 615.084 229.601H600.053ZM667.041 253.004C659.343 254.885 659.44 265.876 667.17 267.622L670.477 252.944C678.237 254.696 678.335 265.731 670.606 267.621L667.041 253.004ZM646.588 216.491C645.167 214.92 643.148 214.025 641.03 214.025V229.072C638.905 229.072 636.878 228.172 635.451 226.596L646.588 216.491ZM644.838 258.652C644.242 258.652 643.64 258.723 643.049 258.869L646.635 273.48C646.041 273.626 645.437 273.699 644.838 273.699V258.652ZM637.867 210.545C639.993 210.545 642.019 211.445 643.447 213.021L632.31 223.126C633.732 224.696 635.75 225.591 637.867 225.591V210.545ZM631.019 261.131C629.595 259.55 627.57 258.652 625.449 258.652V273.699C623.32 273.699 621.287 272.796 619.858 271.209L631.019 261.131ZM601.353 243.503C600.508 242.255 600.053 240.781 600.053 239.268H615.084C615.084 237.761 614.63 236.292 613.788 235.05L601.353 243.503ZM606.885 256.826C605.878 255.712 605.234 254.329 605.019 252.858L619.892 250.688C619.679 249.223 619.036 247.845 618.034 246.735L606.885 256.826Z" fill="black"/>
</g>
<path d="M603.058 208.005C604.443 207.714 605.874 208.224 606.765 209.325L606.766 209.325L609.576 212.802L617.491 207.721V191.844H591.057L592.191 193.981C592.192 193.981 592.192 193.981 592.192 193.981C592.829 195.182 592.772 196.633 592.043 197.78C592.042 197.781 592.042 197.781 592.042 197.781L590.557 200.117C590.816 200.718 590.917 201.382 590.841 202.043L590.479 205.218L594.279 209.85L603.058 208.005ZM589.198 202.254L589.197 202.257V202.258C589.197 202.257 589.197 202.256 589.198 202.254Z" fill="black"/>
<path d="M606.754 214.613L606.754 214.613M603.058 208.005C604.443 207.714 605.874 208.224 606.765 209.325L606.766 209.325L609.576 212.802L617.491 207.721V191.844H591.057L592.191 193.981C592.192 193.981 592.192 193.981 592.192 193.981C592.829 195.182 592.772 196.633 592.043 197.78C592.042 197.781 592.042 197.781 592.042 197.781L590.557 200.117C590.816 200.718 590.917 201.382 590.841 202.043L590.479 205.218L594.279 209.85L603.058 208.005ZM589.198 202.254L589.197 202.257V202.258C589.197 202.257 589.197 202.256 589.198 202.254Z" stroke="black" stroke-width="10"/>
<path d="M586.675 199.838H622.806C622.814 199.838 622.821 199.831 622.821 199.823V194.395C622.821 194.386 622.814 194.38 622.806 194.38H588.35C588.339 194.38 588.331 194.392 588.336 194.402L588.848 195.426C588.849 195.428 588.85 195.431 588.85 195.433V196.055C588.85 196.058 588.849 196.06 588.848 196.063L587.801 197.949L586.662 199.815C586.656 199.825 586.663 199.838 586.675 199.838Z" fill="black"/>
<mask id="mask12_1173_1232" style="mask-type:luminance" maskUnits="userSpaceOnUse" x="586" y="194" width="37" height="6">
<path d="M586.675 199.838H622.806C622.814 199.838 622.821 199.831 622.821 199.823V194.395C622.821 194.386 622.814 194.38 622.806 194.38H588.35C588.339 194.38 588.331 194.392 588.336 194.402L588.848 195.426C588.849 195.428 588.85 195.431 588.85 195.433V196.055C588.85 196.058 588.849 196.06 588.848 196.063L587.801 197.949L586.662 199.815C586.656 199.825 586.663 199.838 586.675 199.838Z" fill="white"/>
</mask>
<g mask="url(#mask12_1173_1232)">
<path d="M587.801 197.949L594.37 201.602L594.295 201.738L594.214 201.871L587.801 197.949ZM588.848 196.063L595.42 199.711L595.417 199.716L588.848 196.063ZM622.806 207.361H586.675V192.315H622.806V207.361ZM630.336 194.395V199.823H615.306V194.395H630.336ZM582.126 198.791L581.615 197.766L595.058 191.037L595.569 192.062L582.126 198.791ZM588.35 186.856H622.806V201.903H588.35V186.856ZM581.334 196.055V195.433H596.365V196.055H581.334ZM580.249 195.892L581.388 194.025L594.214 201.871L593.074 203.738L580.249 195.892ZM581.231 194.295L582.278 192.409L595.417 199.716L594.37 201.602L581.231 194.295ZM596.365 196.055C596.365 197.336 596.039 198.593 595.42 199.711L582.276 192.413C581.659 193.527 581.334 194.78 581.334 196.055H596.365ZM581.615 197.766C579.11 192.753 582.752 186.856 588.35 186.856V201.903C593.924 201.903 597.552 196.03 595.058 191.037L581.615 197.766ZM615.306 194.395C615.306 198.542 618.664 201.903 622.806 201.903V186.856C626.965 186.856 630.336 190.231 630.336 194.395H615.306ZM595.569 192.062C596.094 193.111 596.365 194.266 596.365 195.433H581.334C581.334 196.595 581.604 197.746 582.126 198.791L595.569 192.062ZM586.675 207.361C580.792 207.361 577.183 200.914 580.249 195.892L593.074 203.738C596.128 198.736 592.533 192.315 586.675 192.315V207.361ZM622.806 192.315C618.664 192.315 615.306 195.676 615.306 199.823H630.336C630.336 203.986 626.965 207.361 622.806 207.361V192.315Z" fill="black"/>
</g>
<path d="M640.903 188.12L621.398 201.002C621.388 201.008 621.374 201.001 621.374 200.989V194.769C621.374 194.76 621.368 194.754 621.359 194.754H617.445C617.436 194.754 617.43 194.76 617.43 194.769C617.438 198.551 620.336 202.105 622.729 204.516C622.732 204.519 622.738 204.521 622.743 204.519L632.522 201.7C632.525 201.698 632.528 201.696 632.531 201.693L640.924 188.14C640.933 188.126 640.917 188.111 640.903 188.12Z" fill="black"/>
<mask id="mask13_1173_1232" style="mask-type:luminance" maskUnits="userSpaceOnUse" x="617" y="188" width="24" height="17">
<path d="M640.903 188.12L621.398 201.002C621.388 201.008 621.374 201.001 621.374 200.989V194.769C621.374 194.76 621.368 194.754 621.359 194.754H617.445C617.436 194.754 617.43 194.76 617.43 194.769C617.438 198.551 620.336 202.105 622.729 204.516C622.732 204.519 622.738 204.521 622.743 204.519L632.522 201.7C632.525 201.698 632.528 201.696 632.531 201.693L640.924 188.14C640.933 188.126 640.917 188.111 640.903 188.12Z" fill="white"/>
</mask>
<g mask="url(#mask13_1173_1232)">
<path d="M617.43 194.769L609.915 194.784V194.783L617.43 194.769ZM632.522 201.7L630.441 194.47H630.443L632.522 201.7ZM622.743 204.519L624.823 211.749L624.822 211.749L622.743 204.519ZM617.259 194.722L636.765 181.84L645.042 194.399L625.536 207.281L617.259 194.722ZM647.311 192.105L638.918 205.657L626.144 197.729L634.537 184.176L647.311 192.105ZM617.397 209.819C616.009 208.42 614.241 206.463 612.788 204.106C611.357 201.785 609.923 198.573 609.915 194.784L624.945 194.754C624.945 194.748 624.963 195.204 625.581 196.207C626.177 197.175 627.055 198.201 628.059 199.213L617.397 209.819ZM634.603 208.929L624.823 211.749L620.663 197.29L630.441 194.47L634.603 208.929ZM613.859 200.989V194.769H628.89V200.989H613.859ZM621.359 202.277H617.445V187.23H621.359V202.277ZM613.859 194.769C613.859 198.915 617.216 202.277 621.359 202.277V187.23C625.519 187.23 628.89 190.606 628.89 194.769H613.859ZM628.059 199.213C626.093 197.232 623.244 196.546 620.663 197.29L624.822 211.749C622.23 212.496 619.372 211.807 617.397 209.819L628.059 199.213ZM638.918 205.657C637.934 207.245 636.396 208.412 634.6 208.93L630.443 194.47C628.655 194.985 627.123 196.147 626.144 197.729L638.918 205.657ZM636.765 181.84C643.504 177.389 651.566 185.235 647.311 192.105L634.537 184.176C630.3 191.018 638.33 198.832 645.042 194.399L636.765 181.84ZM625.536 207.281C620.53 210.588 613.859 206.993 613.859 200.989H628.89C628.89 195.009 622.246 191.428 617.259 194.722L625.536 207.281ZM609.915 194.783C609.907 190.621 613.274 187.23 617.445 187.23V202.277C621.6 202.277 624.953 198.9 624.945 194.754L609.915 194.783Z" fill="black"/>
</g>
<path d="M618.549 203.223L618.554 203.238L618.549 203.223ZM618.549 203.223L618.554 203.238L618.549 203.223ZM618.549 203.223L618.554 203.238L618.549 203.223ZM618.549 203.223L618.554 203.238L618.549 203.223ZM631.806 191.844H613.274L619.638 198.852L627.609 195.992L631.806 191.844Z" fill="black"/>
<path d="M618.549 203.223L618.554 203.238M631.806 191.844H613.274L619.638 198.852L627.609 195.992L631.806 191.844Z" stroke="black" stroke-width="10"/>
<path d="M611.328 151.977L575.665 182.443C575.655 182.452 575.662 182.469 575.675 182.469H611.338H647.001C647.016 182.469 647.022 182.452 647.011 182.443L611.348 151.977C611.343 151.973 611.334 151.973 611.328 151.977Z" fill="black"/>
<mask id="mask14_1173_1232" style="mask-type:luminance" maskUnits="userSpaceOnUse" x="575" y="151" width="73" height="32">
<path d="M611.328 151.977L575.665 182.443C575.655 182.452 575.662 182.469 575.675 182.469H611.338H647.001C647.016 182.469 647.022 182.452 647.011 182.443L611.348 151.977C611.343 151.973 611.334 151.973 611.328 151.977Z" fill="white"/>
</mask>
<g mask="url(#mask14_1173_1232)">
<path d="M575.665 182.443L580.543 188.166L580.543 188.166L575.665 182.443ZM611.329 151.977L606.45 146.254L606.451 146.254L611.329 151.977ZM611.348 151.977L606.47 157.7L606.469 157.699L611.348 151.977ZM570.787 176.72L606.45 146.254L616.207 157.7L580.543 188.166L570.787 176.72ZM616.226 146.254L651.889 176.72L642.133 188.166L606.47 157.7L616.226 146.254ZM575.675 174.946H611.338V189.992H575.675V174.946ZM611.338 174.946H647.001V189.992H611.338V174.946ZM651.889 176.72C657.213 181.267 654.002 189.992 647.001 189.992V174.946C640.03 174.946 636.83 183.637 642.133 188.166L651.889 176.72ZM606.451 146.254C609.266 143.851 613.409 143.848 616.227 146.255L606.469 157.699C609.275 160.097 613.403 160.095 616.206 157.701L606.451 146.254ZM580.543 188.166C585.848 183.635 582.645 174.946 575.675 174.946V189.992C568.678 189.992 565.461 181.268 570.788 176.719L580.543 188.166Z" fill="black"/>
</g>
<path d="M625.035 269.518H663.121C663.123 269.518 663.126 269.519 663.126 269.522V272.343C663.126 272.345 663.123 272.347 663.121 272.347H625.035C625.033 272.347 625.031 272.345 625.031 272.343V269.522C625.031 269.519 625.033 269.518 625.035 269.518Z" fill="black"/>
<mask id="mask15_1173_1232" style="mask-type:luminance" maskUnits="userSpaceOnUse" x="625" y="269" width="39" height="4">
<path d="M625.035 269.518H663.121C663.123 269.518 663.126 269.519 663.126 269.522V272.343C663.126 272.345 663.123 272.347 663.121 272.347H625.035C625.033 272.347 625.031 272.345 625.031 272.343V269.522C625.031 269.519 625.033 269.518 625.035 269.518Z" fill="white"/>
</mask>
<g mask="url(#mask15_1173_1232)">
<path d="M625.031 269.522L632.546 269.515V269.522H625.031ZM625.031 272.343L617.516 272.35V272.343H625.031ZM663.121 277.041H625.035V261.995H663.121V277.041ZM663.121 279.87H625.035V264.823H663.121V279.87ZM632.546 269.522V272.343H617.516V269.522H632.546ZM670.641 269.522V272.343H655.61V269.522H670.641ZM625.035 279.87C621.642 279.87 617.52 277.223 617.516 272.35L632.546 272.336C632.542 267.467 628.424 264.823 625.035 264.823V279.87ZM663.121 264.823C659.735 264.823 655.61 267.466 655.61 272.343H670.641C670.641 277.224 666.512 279.87 663.121 279.87V264.823ZM625.035 277.041C628.412 277.041 632.55 274.406 632.546 269.515L617.516 269.528C617.512 264.634 621.653 261.995 625.035 261.995V277.041ZM663.121 261.995C666.513 261.995 670.641 264.641 670.641 269.522H655.61C655.61 274.398 659.735 277.041 663.121 277.041V261.995Z" fill="black"/>
</g>
<path d="M625.035 274.127H663.121C663.123 274.127 663.126 274.13 663.126 274.131V276.952C663.126 276.955 663.123 276.956 663.121 276.956H625.035C625.033 276.956 625.031 276.955 625.031 276.952V274.131C625.031 274.13 625.033 274.127 625.035 274.127Z" fill="black"/>
<mask id="mask16_1173_1232" style="mask-type:luminance" maskUnits="userSpaceOnUse" x="625" y="274" width="39" height="3">
<path d="M625.035 274.127H663.121C663.123 274.127 663.126 274.13 663.126 274.131V276.952C663.126 276.955 663.123 276.956 663.121 276.956H625.035C625.033 276.956 625.031 276.955 625.031 276.952V274.131C625.031 274.13 625.033 274.127 625.035 274.127Z" fill="white"/>
</mask>
<g mask="url(#mask16_1173_1232)">
<path d="M625.031 274.131L632.546 274.125V274.131H625.031ZM625.031 276.952L617.516 276.959V276.952H625.031ZM663.121 281.651H625.035V266.604H663.121V281.651ZM663.121 284.479H625.035V269.433H663.121V284.479ZM632.546 274.131V276.952H617.516V274.131H632.546ZM670.641 274.131V276.952H655.61V274.131H670.641ZM625.035 284.479C621.642 284.479 617.52 281.833 617.516 276.959L632.546 276.946C632.542 272.076 628.424 269.434 625.035 269.433V284.479ZM663.121 269.433C659.735 269.433 655.61 272.076 655.61 276.952H670.641C670.641 281.833 666.512 284.479 663.121 284.479V269.433ZM625.035 281.651C628.412 281.651 632.55 279.015 632.546 274.125L617.516 274.138C617.512 269.243 621.653 266.604 625.035 266.604V281.651ZM663.121 266.604C666.513 266.604 670.641 269.251 670.641 274.132L655.61 274.131C655.61 279.008 659.735 281.651 663.121 281.651V266.604Z" fill="black"/>
</g>
<path d="M625.035 278.947H663.121C663.123 278.947 663.126 278.949 663.126 278.95V281.772C663.126 281.774 663.123 281.775 663.121 281.775H625.035C625.033 281.775 625.031 281.774 625.031 281.772V278.95C625.031 278.949 625.033 278.947 625.035 278.947Z" fill="black"/>
<mask id="mask17_1173_1232" style="mask-type:luminance" maskUnits="userSpaceOnUse" x="625" y="278" width="39" height="4">
<path d="M625.035 278.947H663.121C663.123 278.947 663.126 278.949 663.126 278.95V281.772C663.126 281.774 663.123 281.775 663.121 281.775H625.035C625.033 281.775 625.031 281.774 625.031 281.772V278.95C625.031 278.949 625.033 278.947 625.035 278.947Z" fill="white"/>
</mask>
<g mask="url(#mask17_1173_1232)">
<path d="M625.031 278.95L632.546 278.944V278.95H625.031ZM625.031 281.772L617.516 281.778V281.772H625.031ZM663.121 286.47H625.035V271.423H663.121V286.47ZM663.121 289.299H625.035V274.252H663.121V289.299ZM632.546 278.95V281.772H617.516V278.95H632.546ZM670.641 278.95V281.772H655.61V278.95H670.641ZM625.035 289.299C621.642 289.299 617.52 286.652 617.516 281.778L632.546 281.765C632.542 276.896 628.424 274.253 625.035 274.252V289.299ZM663.121 274.252C659.735 274.252 655.61 276.895 655.61 281.772H670.641C670.641 286.653 666.512 289.299 663.121 289.299V274.252ZM625.035 286.47C628.412 286.471 632.55 283.835 632.546 278.944L617.516 278.957C617.512 274.063 621.653 271.423 625.035 271.423V286.47ZM663.121 271.423C666.513 271.423 670.641 274.07 670.641 278.95H655.61C655.61 283.827 659.735 286.47 663.121 286.47V271.423Z" fill="black"/>
</g>
</g>
<defs>
<clipPath id="clip0_1173_1232">
<rect width="744" height="729" fill="white"/>
</clipPath>
</defs>
</svg>
