<svg width="20" height="20" viewBox="0 0 20 20" fill="none" xmlns="http://www.w3.org/2000/svg">
<rect x="0.5" y="0.5" width="19" height="19" rx="2.5" stroke="white" stroke-opacity="0.5"/>
<path d="M3.35352 3.14648C3.07737 3.14648 2.85352 3.37034 2.85352 3.64648L2.85352 8.14648C2.85352 8.42263 3.07737 8.64648 3.35352 8.64648C3.62966 8.64648 3.85352 8.42263 3.85352 8.14648L3.85352 4.14648L7.85352 4.14648C8.12966 4.14648 8.35352 3.92263 8.35352 3.64648C8.35352 3.37034 8.12966 3.14648 7.85352 3.14648L3.35352 3.14648ZM16.3535 17.1465C16.6297 17.1465 16.8535 16.9226 16.8535 16.6465L16.8535 12.1465C16.8535 11.8703 16.6297 11.6465 16.3535 11.6465C16.0774 11.6465 15.8535 11.8703 15.8535 12.1465L15.8535 16.1465L11.8535 16.1465C11.5774 16.1465 11.3535 16.3703 11.3535 16.6465C11.3535 16.9226 11.5774 17.1465 11.8535 17.1465L16.3535 17.1465ZM2.99996 4.00004L16 17L16.7071 16.2929L3.70707 3.29293L2.99996 4.00004Z" fill="white" fill-opacity="0.5"/>
</svg>
