<svg width="42" height="42" viewBox="0 0 42 42" fill="none" xmlns="http://www.w3.org/2000/svg">
<path d="M21.0678 40.9928L1.01709 20.959C1.01078 20.9527 1.01524 20.9419 1.02415 20.9419H40.976C40.9849 20.9419 40.9893 20.9526 40.9831 20.9589L21.082 40.9927C21.0781 40.9967 21.0717 40.9967 21.0678 40.9928Z" fill="#471F8B" stroke="#41266A" stroke-width="2"/>
<path d="M21.2317 1.00695L40.9831 20.9249C40.9894 20.9312 40.9849 20.9419 40.976 20.9419L1.02439 20.9419C1.01545 20.9419 1.011 20.9311 1.01737 20.9248L21.2176 1.00687C21.2215 1.003 21.2279 1.00303 21.2317 1.00695Z" fill="#8A72D5" stroke="#41266A" stroke-width="2"/>
<path d="M21.2058 1.02846L27.7437 20.9288C27.7459 20.9352 27.741 20.9419 27.7342 20.9419L14.5097 20.9419C14.5028 20.9419 14.498 20.9352 14.5002 20.9287L21.1868 1.0284C21.1898 1.01928 21.2027 1.01932 21.2058 1.02846Z" fill="#652CCA" stroke="#41266A" stroke-width="2"/>
<path d="M21.0384 40.9711L14.5004 20.955C14.4983 20.9485 14.5031 20.9419 14.5099 20.9419L27.7345 20.9419C27.7413 20.9419 27.7461 20.9486 27.744 20.9551L21.0574 40.9712C21.0543 40.9803 21.0414 40.9802 21.0384 40.9711Z" fill="#5A33AE" stroke="#41266A" stroke-width="2"/>
</svg>
