<svg width="40" height="40" viewBox="0 0 341 357" fill="none" xmlns="http://www.w3.org/2000/svg">
<path d="M325.665 196.284C355.076 280.483 308.009 334.511 280.799 351H170.5V6.1C170.5 6.04477 170.545 5.99998 170.6 6.00024C176.876 6.03022 183.132 8.88225 185.569 14.5563L234.688 128.925L262.002 93.3885C269.207 84.0148 286.892 85.9202 290.632 96.4905C297.809 116.769 309.092 148.841 325.665 196.284Z" fill="#FF8700" stroke="#573731" stroke-width="11"/>
<path d="M15.3352 196.284C-14.0764 280.483 32.9906 334.511 60.2005 351H170.5V6.1C170.5 6.04477 170.455 5.99998 170.4 6.00024C164.124 6.03022 157.868 8.88225 155.431 14.5563L106.312 128.925L78.9977 93.3885C71.7929 84.0148 54.1084 85.9202 50.3676 96.4905C43.1913 116.769 31.9077 148.841 15.3352 196.284Z" fill="#FFD655" stroke="#573731" stroke-width="11"/>
<path d="M246.085 266.662C260.644 311.495 238.225 340.635 224.325 350.341C223.689 350.785 222.936 351 222.16 351H169.548C168.311 351 167.228 350.17 166.906 348.976C157.006 312.219 165.29 272.944 189.192 243.316L199.981 229.944L218.82 203.579C220.713 200.93 224.789 201.536 225.813 204.627C229.054 214.421 235.401 233.761 246.085 266.662Z" fill="#FF0000" stroke="#573731" stroke-width="11"/>
<path d="M95.8835 266.662C81.3245 311.495 103.744 340.635 117.644 350.341C118.28 350.785 119.033 351 119.809 351H172.421C173.658 351 174.741 350.17 175.062 348.976C184.963 312.219 176.679 272.944 152.777 243.316L141.988 229.944L123.149 203.579C121.255 200.93 117.179 201.536 116.156 204.627C112.914 214.421 106.568 233.761 95.8835 266.662Z" fill="#FFB012" stroke="#573731" stroke-width="11"/>
</svg>
