<svg width="42" height="42" viewBox="0 0 42 42" fill="none" xmlns="http://www.w3.org/2000/svg">
<rect width="42" height="42" fill="#1E1E1E"/>
<path d="M21.0678 40.9928L1.01709 20.959C1.01078 20.9527 1.01524 20.942 1.02415 20.942H40.976C40.9849 20.942 40.9893 20.9527 40.9831 20.959L21.082 40.9928C21.0781 40.9967 21.0717 40.9967 21.0678 40.9928Z" fill="#471F8B" stroke="#41266A" stroke-width="2"/>
<path d="M21.2317 1.00701L40.9831 20.9249C40.9894 20.9312 40.9849 20.942 40.976 20.942L1.02439 20.942C1.01545 20.942 1.011 20.9311 1.01737 20.9248L21.2176 1.00693C21.2215 1.00306 21.2279 1.00309 21.2317 1.00701Z" fill="#8A72D5" stroke="#41266A" stroke-width="2"/>
<path d="M21.2058 1.02852L27.7437 20.9288C27.7459 20.9353 27.741 20.942 27.7342 20.942L14.5097 20.942C14.5028 20.942 14.498 20.9353 14.5002 20.9288L21.1868 1.02846C21.1898 1.01934 21.2027 1.01938 21.2058 1.02852Z" fill="#652CCA" stroke="#41266A" stroke-width="2"/>
<path d="M21.0384 40.9711L14.5004 20.9551C14.4983 20.9486 14.5031 20.942 14.5099 20.942L27.7345 20.942C27.7413 20.942 27.7461 20.9486 27.744 20.9551L21.0574 40.9712C21.0543 40.9804 21.0414 40.9803 21.0384 40.9711Z" fill="#5A33AE" stroke="#41266A" stroke-width="2"/>
</svg>
